<?xml version="1.0" encoding="UTF-8"?>
<svg version="1.1" xmlns="http://www.w3.org/2000/svg" width="151" height="151">
<path d="M0 0 C1.319991 1.09520045 2.63249562 2.19948434 3.9375 3.3125 C4.76378906 3.94800781 5.59007813 4.58351563 6.44140625 5.23828125 C19.78134917 16.32358593 27.79933078 34.31513462 29.9375 51.3125 C31.50378154 73.59340636 26.62531439 93.09112323 11.9375 110.3125 C11.30199219 111.13878906 10.66648438 111.96507813 10.01171875 112.81640625 C-1.07358593 126.15634917 -19.06513462 134.17433078 -36.0625 136.3125 C-58.34340636 137.87878154 -77.84112323 133.00031439 -95.0625 118.3125 C-95.88878906 117.67699219 -96.71507813 117.04148438 -97.56640625 116.38671875 C-110.90634917 105.30141407 -118.92433078 87.30986538 -121.0625 70.3125 C-122.62878154 48.03159364 -117.75031439 28.53387677 -103.0625 11.3125 C-102.42699219 10.48621094 -101.79148437 9.65992187 -101.13671875 8.80859375 C-76.88711992 -20.37312688 -29.05689267 -22.3072685 0 0 Z " fill="#5C96CD" transform="translate(121.0625,14.6875)"/>
<path d="M0 0 C1.319991 1.09520045 2.63249562 2.19948434 3.9375 3.3125 C4.76378906 3.94800781 5.59007813 4.58351563 6.44140625 5.23828125 C19.78134917 16.32358593 27.79933078 34.31513462 29.9375 51.3125 C31.50378154 73.59340636 26.62531439 93.09112323 11.9375 110.3125 C11.30199219 111.13878906 10.66648438 111.96507813 10.01171875 112.81640625 C-1.07358593 126.15634917 -19.06513462 134.17433078 -36.0625 136.3125 C-58.34340636 137.87878154 -77.84112323 133.00031439 -95.0625 118.3125 C-95.88878906 117.67699219 -96.71507813 117.04148438 -97.56640625 116.38671875 C-110.90634917 105.30141407 -118.92433078 87.30986538 -121.0625 70.3125 C-122.62878154 48.03159364 -117.75031439 28.53387677 -103.0625 11.3125 C-102.42699219 10.48621094 -101.79148437 9.65992187 -101.13671875 8.80859375 C-76.88711992 -20.37312688 -29.05689267 -22.3072685 0 0 Z M-92.25 9.5625 C-106.29950516 22.72138677 -113.98585013 39.77164707 -115.05859375 58.8984375 C-115.08123455 78.68649949 -107.93816909 95.62132454 -94.50390625 109.96484375 C-80.63357341 123.30255581 -63.25712191 130.29056329 -44.0625 130.3125 C-33.99802442 129.72797396 -25.20973414 127.5118057 -16.0625 123.3125 C-15.11632812 122.88066406 -14.17015625 122.44882813 -13.1953125 122.00390625 C-5.80842904 118.31046452 0.32120826 113.35245785 5.9375 107.3125 C5.9375 106.6525 5.9375 105.9925 5.9375 105.3125 C6.5975 105.3125 7.2575 105.3125 7.9375 105.3125 C10.5416935 101.82313728 12.71491433 98.05343632 14.9375 94.3125 C15.53498047 93.31283203 15.53498047 93.31283203 16.14453125 92.29296875 C24.83992173 76.39183636 25.63215846 57.84041289 20.93359375 40.63671875 C14.75677216 21.98394069 2.22571312 7.57106916 -15.1875 -1.5 C-16.80304024 -2.24989251 -18.42765382 -2.98068532 -20.0625 -3.6875 C-20.71992187 -3.98398438 -21.37734375 -4.28046875 -22.0546875 -4.5859375 C-46.17986026 -14.06703652 -73.13755153 -6.72817145 -92.25 9.5625 Z " fill="#010104" transform="translate(121.0625,14.6875)"/>
<path d="M0 0 C0.99 0.66 1.98 1.32 3 2 C3 1.01 3 0.02 3 -1 C4.32 -1.66 5.64 -2.32 7 -3 C9.79694051 5.39082154 8.12296653 15.91702781 5 24 C4.34 24.99 3.68 25.98 3 27 C2.34 27 1.68 27 1 27 C1.185625 28.2375 1.185625 28.2375 1.375 29.5 C0.83220181 34.56611645 -1.71164301 37.24500255 -5 41 C-5.52980469 41.61230469 -6.05960938 42.22460938 -6.60546875 42.85546875 C-11.85553711 48.50459219 -18.00558301 53.01891513 -25.5625 54.875 C-32.97237748 52.98884937 -37.64244402 46.9024045 -41.75 40.75 C-47.9871082 30.23931766 -50.99387539 19.9388879 -53 8 C-54.65 7.67 -56.3 7.34 -58 7 C-58 6.34 -58 5.68 -58 5 C-57.236875 4.566875 -56.47375 4.13375 -55.6875 3.6875 C-52.8542611 2.22089218 -52.8542611 2.22089218 -51.69921875 -0.4609375 C-42.15720689 -14.71911614 -12.07581687 -5.8961735 0 0 Z " fill="#5C97D0" transform="translate(98,55)"/>
<path d="M0 0 C17.99725759 0.87083504 35.18728347 6.85031439 47.73828125 20.12890625 C56.60426237 31.38364912 60.42594342 44.75861568 59 59 C56.37050003 71.54917051 49.09215754 80.38158623 39 88 C32.11591808 92.05193416 23.84291574 92.79644067 16 92 C15.01 91.34 14.02 90.68 13 90 C13.6290625 89.52691406 14.258125 89.05382812 14.90625 88.56640625 C26.63718456 79.50319928 37.45264757 68.16085562 40 53 C41.46905952 40.1321268 39.13624531 31.15888296 31.24609375 20.66796875 C23.05141251 11.6945273 11.11953676 5.5158935 0 1 C0 0.67 0 0.34 0 0 Z " fill="#111617" transform="translate(66,17)"/>
<path d="M0 0 C0.33 0 0.66 0 1 0 C1.1959375 1.0415625 1.391875 2.083125 1.59375 3.15625 C4.74411388 18.69609597 10.43631854 34.84180371 24.08984375 44.09375 C34.32062693 49.89387905 44.10517504 50.57503668 55.5625 47.9375 C65.51481939 44.78840789 75.03611518 39.7519893 83 33 C83.66 33.33 84.32 33.66 85 34 C75.33808469 47.14144751 62.86215729 60.13063038 46.20703125 63.578125 C32.72565476 65.3515582 20.10493709 64.24575385 8.625 56.25 C7.38461961 55.20351205 6.1765102 54.11781229 5 53 C3.96939453 52.02933594 3.96939453 52.02933594 2.91796875 51.0390625 C-5.07328068 42.82542209 -9.40348475 32.23702552 -9.28515625 20.79296875 C-8.53084649 13.40486631 -5.32835955 5.32835955 0 0 Z " fill="#111516" transform="translate(45,64)"/>
<path d="M0 0 C6.64731541 3.97192531 11.50778441 9.06581653 15 16 C15.875 19.5625 15.875 19.5625 16 22 C14.6875 21.5625 13.375 21.125 12.0625 20.6875 C11.24007812 20.41550781 10.41765625 20.14351562 9.5703125 19.86328125 C7.93472431 19.31394236 6.30380263 18.75035347 4.6796875 18.16796875 C-0.18575275 16.44726427 -4.82910625 15.30156156 -10 15 C-10.96808594 14.93554688 -11.93617187 14.87109375 -12.93359375 14.8046875 C-23.55048209 14.42232658 -33.98223414 16.29828388 -42.296875 23.3203125 C-53.84628354 34.71078423 -55.97320046 48.37419577 -56.5625 63.9375 C-56.60568359 65.00291016 -56.64886719 66.06832031 -56.69335938 67.16601562 C-56.79874489 69.77723443 -56.90087088 72.38853746 -57 75 C-59.43974448 72.56025552 -59.98405923 70.5806266 -61.0625 67.3125 C-61.40410156 66.29800781 -61.74570312 65.28351563 -62.09765625 64.23828125 C-63.99723877 57.42116477 -64.2096486 50.71368807 -64.25 43.6875 C-64.270625 42.80126953 -64.29125 41.91503906 -64.3125 41.00195312 C-64.38458899 28.64770274 -60.04187896 18.64815748 -51.7421875 9.515625 C-37.67516011 -3.9633916 -17.91970308 -8.9334213 0 0 Z " fill="#111414" transform="translate(84,34)"/>
<path d="M0 0 C0.495 0.99 0.495 0.99 1 2 C0.67 2.66 0.34 3.32 0 4 C0.66 4 1.32 4 2 4 C2.495 5.485 2.495 5.485 3 7 C5.01508358 7.73323796 5.01508358 7.73323796 7 8 C7 7.34 7 6.68 7 6 C7.99 6.33 8.98 6.66 10 7 C-4.68436668 18.59446989 -19.15125149 24.74864334 -38 23 C-41.24995743 22.01516441 -44.09999878 20.76043434 -47 19 C-44.33722092 17.63803575 -41.97247474 16.47943141 -39 16 C-38.01 16.33 -37.02 16.66 -36 17 C-25.18284732 17.83959849 -16.41175295 16.06409534 -8 9 C-5.17968189 6.118575 -2.54773291 3.12392318 0 0 Z M-1 4 C-3.65192005 7.26162958 -3.65192005 7.26162958 -5 11 C-3.35 11 -1.7 11 0 11 C1.33304698 8.10813214 1.33304698 8.10813214 0.0625 5.8125 C-0.288125 5.214375 -0.63875 4.61625 -1 4 Z " fill="#5F90BF" transform="translate(118,91)"/>
<path d="M0 0 C12.34135949 7.17413608 22.86570226 15.71033739 27 30 C28.91776513 40.76312842 27.001187 52.22050767 20.75 61.25 C20.1725 61.8275 19.595 62.405 19 63 C19 61.35 19 59.7 19 58 C19.66 58 20.32 58 21 58 C21.12375 57.443125 21.2475 56.88625 21.375 56.3125 C22 54 22 54 23 51.6875 C25.4402304 45.12938079 25.39029508 37.92199798 25 31 C24.505 30.01 24.505 30.01 24 29 C23.01 29.33 22.02 29.66 21 30 C21 30.99 21 31.98 21 33 C20.34 32.67 19.68 32.34 19 32 C18.86722656 31.10410156 18.73445313 30.20820312 18.59765625 29.28515625 C17.44260527 22.93615052 12.83496083 17.48412736 8.04296875 13.28515625 C3.13739747 9.99812376 -2.31573268 8.43271492 -8 7 C-5.33788628 5.62420173 -2.93703384 4.62936439 0 4 C0 2.68 0 1.36 0 0 Z M-2 5 C-1 7 -1 7 -1 7 Z " fill="#5F90BF" transform="translate(80,24)"/>
<path d="M0 0 C1.38312068 4.14936204 -0.05643221 7.13422834 -1.375 11.125 C-1.60960937 11.86621094 -1.84421875 12.60742188 -2.0859375 13.37109375 C-3.84823534 18.84823534 -3.84823534 18.84823534 -5 20 C-5.10013609 22.08660944 -5.13081208 24.17661514 -5.1328125 26.265625 C-5.13410156 27.54824219 -5.13539062 28.83085938 -5.13671875 30.15234375 C-5.13462402 30.82507324 -5.1325293 31.49780273 -5.13037109 32.19091797 C-5.12505839 34.22761618 -5.13029697 36.26409027 -5.13671875 38.30078125 C-5.13542969 39.58855469 -5.13414063 40.87632813 -5.1328125 42.203125 C-5.13168457 43.38551758 -5.13055664 44.56791016 -5.12939453 45.78613281 C-5.01405322 48.6509499 -4.65945609 51.21679406 -4 54 C-3.34 54 -2.68 54 -2 54 C-2 55.98 -2 57.96 -2 60 C-1.34 60 -0.68 60 0 60 C0.28875 60.804375 0.5775 61.60875 0.875 62.4375 C1.73262568 65.1326468 1.73262568 65.1326468 4 66 C4.5625 67.75 4.5625 67.75 5 70 C5.185625 70.9075 5.37125 71.815 5.5625 72.75 C5.706875 73.4925 5.85125 74.235 6 75 C-4.35687957 65.49131315 -8.37074005 48.95025491 -9.03125 35.34375 C-8.91916441 23.35059233 -6.78301597 10.17452395 0 0 Z " fill="#658CB1" transform="translate(15,42)"/>
<path d="M0 0 C0.66 0.33 1.32 0.66 2 1 C-2.30143623 6.76575494 -6.7697484 12.05590198 -12 17 C-12.99 16.34 -13.98 15.68 -15 15 C-14.67 14.34 -14.34 13.68 -14 13 C-16.64 13.33 -19.28 13.66 -22 14 C-19.32104398 12.21402932 -16.65938178 10.74370948 -13.8125 9.25 C-8.8438833 6.56747556 -4.38715873 3.54492482 0 0 Z " fill="#101A20" transform="translate(128,97)"/>
<path d="M0 0 C5.67221367 8.50832051 4.36894424 22.86920883 2.78125 32.5625 C1.64361818 37.56807999 0.01916187 42.28535504 -2 47 C-3.6092132 42.99214825 -2.23475885 39.68208024 -1.0625 35.75 C1.34723217 27.01965886 2.92194982 16.76584946 0 8 C-0.12781786 5.32605036 -0.04391871 2.67904143 0 0 Z " fill="#6489AD" transform="translate(141,56)"/>
<path d="M0 0 C1.12438477 0.14985352 1.12438477 0.14985352 2.27148438 0.30273438 C4.11931482 0.54989641 5.9660266 0.80539611 7.8125 1.0625 C7.8125 1.3925 7.8125 1.7225 7.8125 2.0625 C4.8425 2.7225 1.8725 3.3825 -1.1875 4.0625 C0.1325 4.7225 1.4525 5.3825 2.8125 6.0625 C-4.30091265 6.51414525 -8.90296794 5.39047915 -15.1875 2.0625 C-9.73815256 -0.75612799 -6.00365671 -0.8441823 0 0 Z " fill="#5F8EBB" transform="translate(86.1875,107.9375)"/>
<path d="M0 0 C2.14576637 -0.02685938 4.29162645 -0.04633088 6.4375 -0.0625 C7.63246094 -0.07410156 8.82742187 -0.08570313 10.05859375 -0.09765625 C13 0 13 0 14 1 C16.24816065 1.10004903 18.49961907 1.12966884 20.75 1.125 C21.98234375 1.12757813 23.2146875 1.13015625 24.484375 1.1328125 C27.89145209 1.11618721 27.89145209 1.11618721 30.703125 0.3671875 C33.48655901 -0.07778324 34.65500479 0.52352154 37 2 C10.28459708 5.97823869 10.28459708 5.97823869 0 0 Z " fill="#638AAF" transform="translate(55,141)"/>
<path d="M0 0 C6.2054142 0.48320848 11.99945246 1.33318124 18 3 C17.67 3.99 17.34 4.98 17 6 C17.33 6.99 17.66 7.98 18 9 C13.98696492 7.443154 10.0907072 5.68861143 6.1875 3.875 C4.44533203 3.06675781 4.44533203 3.06675781 2.66796875 2.2421875 C1.78753906 1.83226563 0.90710938 1.42234375 0 1 C0 0.67 0 0.34 0 0 Z " fill="#122231" transform="translate(66,17)"/>
<path d="M0 0 C0.66 0.33 1.32 0.66 2 1 C-1.61328125 5.6875 -1.61328125 5.6875 -3 7 C-3.99 7 -4.98 7 -6 7 C-6.103125 7.556875 -6.20625 8.11375 -6.3125 8.6875 C-7.15531466 11.52242204 -8.25558821 13.60950977 -10 16 C-12.10546875 16.64453125 -12.10546875 16.64453125 -14 17 C-10.76364888 9.62111946 -6.73967652 4.49311768 0 0 Z " fill="#5F8BB5" transform="translate(46,53)"/>
<path d="M0 0 C-0.66 1.32 -1.32 2.64 -2 4 C-2.99 4 -3.98 4 -5 4 C-5.16822266 4.87398437 -5.16822266 4.87398437 -5.33984375 5.765625 C-6.06000876 8.20310657 -7.04379395 9.7250586 -8.5625 11.75 C-9.24505859 12.67039062 -9.24505859 12.67039062 -9.94140625 13.609375 C-10.46541016 14.29773438 -10.46541016 14.29773438 -11 15 C-11.99 14.67 -12.98 14.34 -14 14 C-12.73253547 12.2267539 -11.46089765 10.45649025 -10.1875 8.6875 C-9.47980469 7.70136719 -8.77210937 6.71523438 -8.04296875 5.69921875 C-3.72937771 0 -3.72937771 0 0 0 Z " fill="#638AB2" transform="translate(30,26)"/>
<path d="M0 0 C0.66 0.33 1.32 0.66 2 1 C0.87970983 2.48273699 -0.24638618 3.96108886 -1.375 5.4375 C-2.31472656 6.67306641 -2.31472656 6.67306641 -3.2734375 7.93359375 C-5 10 -5 10 -7 11 C-7 10.01 -7 9.02 -7 8 C-8.32 8.33 -9.64 8.66 -11 9 C-7.67149253 5.40521193 -4.01028669 2.77635232 0 0 Z " fill="#101C27" transform="translate(128,97)"/>
<path d="M0 0 C0.66 0 1.32 0 2 0 C2.33 0.99 2.66 1.98 3 3 C5.01508358 3.73323796 5.01508358 3.73323796 7 4 C7 3.34 7 2.68 7 2 C7.99 2.33 8.98 2.66 10 3 C6.7 5.31 3.4 7.62 0 10 C-0.66 9.01 -1.32 8.02 -2 7 C-1.34 6.67 -0.68 6.34 0 6 C0 4.02 0 2.04 0 0 Z " fill="#6192C2" transform="translate(118,95)"/>
<path d="M0 0 C0.66 0 1.32 0 2 0 C0.56691865 3.95906817 -1.33141949 7.28718181 -3.625 10.8125 C-4.57246094 12.27623047 -4.57246094 12.27623047 -5.5390625 13.76953125 C-6.02117187 14.50558594 -6.50328125 15.24164063 -7 16 C-8.2077558 12.37673261 -7.54311128 11.35853631 -6 8 C-5.01 8 -4.02 8 -3 8 C-3 6.35 -3 4.7 -3 3 C-2.34 3 -1.68 3 -1 3 C-0.67 2.01 -0.34 1.02 0 0 Z " fill="#6589B1" transform="translate(136,104)"/>
<path d="M0 0 C0.33 0 0.66 0 1 0 C1 8.58 1 17.16 1 26 C0.01 26 -0.98 26 -2 26 C-2 24.35 -2 22.7 -2 21 C-1.67 21 -1.34 21 -1 21 C-0.67 14.07 -0.34 7.14 0 0 Z " fill="#618DB3" transform="translate(27,86)"/>
<path d="M0 0 C0.33 0.66 0.66 1.32 1 2 C0 5 0 5 -1.8125 6.75 C-4.57241345 9.58876812 -6.12510819 12.51805806 -8 16 C-8.66 16 -9.32 16 -10 16 C-8.69091868 12.44408198 -7.12739559 9.44509001 -5 6.3125 C-4.2265625 5.16201172 -4.2265625 5.16201172 -3.4375 3.98828125 C-2 2 -2 2 0 0 Z " fill="#152431" transform="translate(33,43)"/>
<path d="M0 0 C3.3 0.99 6.6 1.98 10 3 C10 3.66 10 4.32 10 5 C12.475 5.99 12.475 5.99 15 7 C14.67 7.66 14.34 8.32 14 9 C12.22566188 8.06915029 10.45564851 7.13005387 8.6875 6.1875 C7.70136719 5.66542969 6.71523438 5.14335937 5.69921875 4.60546875 C3 3 3 3 0 0 Z " fill="#6589AF" transform="translate(34,130)"/>
<path d="M0 0 C0.33 0 0.66 0 1 0 C1 6.27 1 12.54 1 19 C-1.37783838 16.62216162 -1.59009208 15.27926335 -2 12 C-1.67 11.34 -1.34 10.68 -1 10 C-0.77377919 8.29636178 -0.59111527 6.58671299 -0.4375 4.875 C-0.35371094 3.96492188 -0.26992188 3.05484375 -0.18359375 2.1171875 C-0.12300781 1.41851562 -0.06242187 0.71984375 0 0 Z " fill="#1C364B" transform="translate(26,90)"/>
<path d="M0 0 C0.33 0 0.66 0 1 0 C1.37634203 6.80203375 0.77471079 11.75690073 -2 18 C-3.51553092 14.02549507 -2.49888623 10.79518851 -1.5625 6.75 C-1.27503906 5.48671875 -0.98757812 4.2234375 -0.69140625 2.921875 C-0.46324219 1.95765625 -0.23507813 0.9934375 0 0 Z " fill="#6690BB" transform="translate(141,85)"/>
<path d="M0 0 C2.6486859 3.19668988 4.93992341 6.39486597 7 10 C6.21625 9.649375 5.4325 9.29875 4.625 8.9375 C3.75875 8.628125 2.8925 8.31875 2 8 C1.01 8.495 1.01 8.495 0 9 C0 6.03 0 3.06 0 0 Z " fill="#5D88B5" transform="translate(40,104)"/>
<path d="M0 0 C1.04391334 3.13174001 1.0069626 4.82496113 0.6875 8.0625 C0.60886719 8.94035156 0.53023437 9.81820312 0.44921875 10.72265625 C0 13 0 13 -2 15 C-2.38218767 13.34385343 -2.71395102 11.67542976 -3 10 C-2.67 9.67 -2.34 9.34 -2 9 C-1.79395915 7.67218122 -1.6337041 6.33704105 -1.5 5 C-1.11111111 1.11111111 -1.11111111 1.11111111 0 0 Z " fill="#07131A" transform="translate(26,87)"/>
<path d="M0 0 C2.64 0 5.28 0 8 0 C8 0.66 8 1.32 8 2 C8.99 2.33 9.98 2.66 11 3 C11 3.66 11 4.32 11 5 C9.53932801 4.54917531 8.08151968 4.08906463 6.625 3.625 C5.81289063 3.36976562 5.00078125 3.11453125 4.1640625 2.8515625 C2 2 2 2 0 0 Z " fill="#15252E" transform="translate(56,121)"/>
<path d="M0 0 C2.67901932 2.31881505 3.66204403 4.31814468 4.6875 7.6875 C4.93886719 8.49574219 5.19023437 9.30398437 5.44921875 10.13671875 C5.63097656 10.75160156 5.81273437 11.36648437 6 12 C5.34 12.66 4.68 13.32 4 14 C3.566875 12.3603125 3.566875 12.3603125 3.125 10.6875 C2.18106796 6.95986155 2.18106796 6.95986155 0 4 C0 2.68 0 1.36 0 0 Z " fill="#6489AD" transform="translate(135,42)"/>
<path d="M0 0 C2.5654594 2.5654594 2.54046087 4.47686668 3 8 C0.69 7.34 -1.62 6.68 -4 6 C-2.68 5.67 -1.36 5.34 0 5 C0 3.35 0 1.7 0 0 Z " fill="#13202F" transform="translate(97,48)"/>
<path d="M0 0 C-4.83646298 3.22430866 -7.26939984 3.09242903 -13 3 C-8.54370064 0.02913376 -5.32064558 -0.12092376 0 0 Z " fill="#5C87AF" transform="translate(67,48)"/>
<path d="M0 0 C0.66 0.33 1.32 0.66 2 1 C-0.475 4.465 -0.475 4.465 -3 8 C-3.66 6.68 -4.32 5.36 -5 4 C-3.35 2.68 -1.7 1.36 0 0 Z " fill="#112537" transform="translate(128,97)"/>
<path d="M0 0 C-2 2 -2 2 -4.1640625 2.1953125 C-5.38222656 2.16050781 -5.38222656 2.16050781 -6.625 2.125 C-7.44226562 2.10695313 -8.25953125 2.08890625 -9.1015625 2.0703125 C-9.72804687 2.04710937 -10.35453125 2.02390625 -11 2 C-6.98764085 -0.6749061 -4.6342454 -1.48957888 0 0 Z " fill="#6284A8" transform="translate(63,9)"/>
<path d="M0 0 C0 1.32 0 2.64 0 4 C-1.98 4.33 -3.96 4.66 -6 5 C-3.74193548 0 -3.74193548 0 0 0 Z " fill="#0C1414" transform="translate(121,105)"/>
<path d="M0 0 C0.66 0.33 1.32 0.66 2 1 C1.67 1.66 1.34 2.32 1 3 C2.32 3 3.64 3 5 3 C5 3.66 5 4.32 5 5 C1.7 4.34 -1.6 3.68 -5 3 C-3.68 2.34 -2.36 1.68 -1 1 C-0.67 0.67 -0.34 0.34 0 0 Z " fill="#5C83AC" transform="translate(77,28)"/>
<path d="M0 0 C0 0.99 0 1.98 0 3 C-1.98 3.99 -3.96 4.98 -6 6 C-6.66 5.34 -7.32 4.68 -8 4 C-5.36 2.68 -2.72 1.36 0 0 Z " fill="#648EB4" transform="translate(50,11)"/>
<path d="M0 0 C0.66 0.33 1.32 0.66 2 1 C1.34 2.65 0.68 4.3 0 6 C-1.65 6 -3.3 6 -5 6 C-5 5.34 -5 4.68 -5 4 C-4.0409375 3.8453125 -4.0409375 3.8453125 -3.0625 3.6875 C-2.381875 3.460625 -1.70125 3.23375 -1 3 C-0.67 2.01 -0.34 1.02 0 0 Z " fill="#5C95CF" transform="translate(108,103)"/>
<path d="M0 0 C0.99 0.66 1.98 1.32 3 2 C1.68 4.31 0.36 6.62 -1 9 C-1.33 9 -1.66 9 -2 9 C-2 7.35 -2 5.7 -2 4 C-1.34 4 -0.68 4 0 4 C0 2.68 0 1.36 0 0 Z " fill="#5F8CB6" transform="translate(101,78)"/>
<path d="M0 0 C0.33 0.99 0.66 1.98 1 3 C-0.32 3.33 -1.64 3.66 -3 4 C-3 4.66 -3 5.32 -3 6 C-3.99 6 -4.98 6 -6 6 C-6 5.34 -6 4.68 -6 4 C-4.03852126 2.61061923 -2.03833424 1.2739589 0 0 Z " fill="#648DB6" transform="translate(111,117)"/>
<path d="M0 0 C2.88437779 1.29299694 4.87219421 2.65941363 7 5 C4.69 5 2.38 5 0 5 C0 3.35 0 1.7 0 0 Z " fill="#0E1F28" transform="translate(84,35)"/>
</svg>
