<?xml version="1.0" encoding="UTF-8"?>
<svg version="1.1" xmlns="http://www.w3.org/2000/svg" width="151" height="151">
<path d="M0 0 C1.319991 1.09520045 2.63249562 2.19948434 3.9375 3.3125 C4.76378906 3.94800781 5.59007813 4.58351563 6.44140625 5.23828125 C19.78134917 16.32358593 27.79933078 34.31513462 29.9375 51.3125 C31.50378154 73.59340636 26.62531439 93.09112323 11.9375 110.3125 C11.30199219 111.13878906 10.66648438 111.96507813 10.01171875 112.81640625 C-1.07358593 126.15634917 -19.06513462 134.17433078 -36.0625 136.3125 C-58.34340636 137.87878154 -77.84112323 133.00031439 -95.0625 118.3125 C-95.88878906 117.67699219 -96.71507813 117.04148438 -97.56640625 116.38671875 C-110.90634917 105.30141407 -118.92433078 87.30986538 -121.0625 70.3125 C-122.62878154 48.03159364 -117.75031439 28.53387677 -103.0625 11.3125 C-102.42699219 10.48621094 -101.79148437 9.65992187 -101.13671875 8.80859375 C-76.88711992 -20.37312688 -29.05689267 -22.3072685 0 0 Z " fill="#A3A5A7" transform="translate(121.0625,14.6875)"/>
<path d="M0 0 C1.16789062 0.43505859 1.16789062 0.43505859 2.359375 0.87890625 C4.24547366 1.63501976 6.13080637 2.39304505 8.015625 3.15234375 C17.20460139 6.80351915 26.2921507 9.61420694 36.1875 10.4375 C37.445625 10.6025 38.70375 10.7675 40 10.9375 C42.60093725 14.83890587 42.34309321 18.15970469 42.3125 22.6875 C42.30512817 23.96415527 42.30512817 23.96415527 42.29760742 25.26660156 C41.88577864 47.83059507 33.67486212 69.82810955 17.91015625 86.09375 C11.73822849 91.89737104 4.0856719 98.40216612 -4.5625 99.3125 C-23.32035642 91.80935743 -34.00652278 76.73843555 -42 58.9375 C-48.41833874 43.74264695 -49.56349787 27.23719763 -49 10.9375 C-47.87207031 10.80214844 -46.74414062 10.66679688 -45.58203125 10.52734375 C-31.94785425 8.72165737 -18.732008 5.31023784 -6.1484375 -0.34375 C-3.54766548 -1.21382646 -2.53019359 -0.98341509 0 0 Z " fill="#292627" transform="translate(79,30.0625)"/>
<path d="M0 0 C1.319991 1.09520045 2.63249562 2.19948434 3.9375 3.3125 C4.76378906 3.94800781 5.59007813 4.58351563 6.44140625 5.23828125 C19.78134917 16.32358593 27.79933078 34.31513462 29.9375 51.3125 C31.50378154 73.59340636 26.62531439 93.09112323 11.9375 110.3125 C11.30199219 111.13878906 10.66648438 111.96507813 10.01171875 112.81640625 C-1.07358593 126.15634917 -19.06513462 134.17433078 -36.0625 136.3125 C-58.34340636 137.87878154 -77.84112323 133.00031439 -95.0625 118.3125 C-95.88878906 117.67699219 -96.71507813 117.04148438 -97.56640625 116.38671875 C-110.90634917 105.30141407 -118.92433078 87.30986538 -121.0625 70.3125 C-122.62878154 48.03159364 -117.75031439 28.53387677 -103.0625 11.3125 C-102.42699219 10.48621094 -101.79148437 9.65992187 -101.13671875 8.80859375 C-76.88711992 -20.37312688 -29.05689267 -22.3072685 0 0 Z M-96.0625 14.3125 C-96.72636719 14.94542969 -97.39023438 15.57835938 -98.07421875 16.23046875 C-109.60608681 27.9696513 -114.26033075 44.98511594 -114.375 61 C-114.11700749 78.25683205 -108.9817298 93.56894964 -97.0625 106.3125 C-96.36253906 107.09109375 -95.66257812 107.8696875 -94.94140625 108.671875 C-82.89898417 121.46560684 -67.04851468 128.8100905 -49.53515625 129.53125 C-40.61518529 129.76510028 -32.49200523 129.53363605 -24.0625 126.3125 C-23.09183594 125.9721875 -22.12117188 125.631875 -21.12109375 125.28125 C-5.36930298 119.32655004 8.25461865 107.34096546 15.9375 92.3125 C23.7886768 74.65849178 26.2234628 54.78450537 19.1875 36.34716797 C14.88122797 25.94283595 9.00265339 18.07982645 0.9375 10.3125 C0.28136719 9.63703125 -0.37476562 8.9615625 -1.05078125 8.265625 C-13.93546446 -4.20520329 -31.86254227 -8.15233978 -49.140625 -7.890625 C-68.15141967 -7.29243422 -83.12929683 0.90249671 -96.0625 14.3125 Z " fill="#282526" transform="translate(121.0625,14.6875)"/>
<path d="M0 0 C1.1859375 0.46277344 2.371875 0.92554688 3.59375 1.40234375 C4.54121094 1.77625244 4.54121094 1.77625244 5.5078125 2.15771484 C13.58004024 5.31735889 21.44503623 7.47614708 30 9 C30.82998889 21.17317041 28.87135422 32.42720979 25 44 C24.67 44.33 24.34 44.66 24 45 C18.52655237 44.57629403 14.1681413 43.06038234 9.25 40.8125 C8.55189209 40.49861328 7.85378418 40.18472656 7.13452148 39.86132812 C-5.48448154 34.11420311 -21.45213907 26.77674557 -27 13 C-26.625 9.25 -26.625 9.25 -26 6 C-23.62427395 5.04970958 -21.24800883 4.10155305 -18.8671875 3.1640625 C-17.00170184 2.40668549 -15.15101681 1.61139837 -13.3203125 0.7734375 C-12.47210938 0.39445312 -11.62390625 0.01546875 -10.75 -0.375 C-9.98171875 -0.73335937 -9.2134375 -1.09171875 -8.421875 -1.4609375 C-5.04475582 -2.21261887 -3.18844925 -1.29187168 0 0 Z " fill="#A3A5A7" transform="translate(81,40)"/>
<path d="M0 0 C44.86109692 23.65520484 44.86109692 23.65520484 51 34 C51.875 37.5625 51.875 37.5625 51 41 C47.18611584 46.35117285 40.95611382 51.26965577 35 54 C27.39513766 53.1219712 19.81875237 45.37063441 15.14453125 39.78125 C6.53007087 28.0671052 0.87864689 14.51282276 0 0 Z " fill="#A3A5A7" transform="translate(42,64)"/>
</svg>
