<?xml version="1.0" encoding="UTF-8"?>
<svg version="1.1" xmlns="http://www.w3.org/2000/svg" width="151" height="151">
<path d="M0 0 C1.319991 1.09520045 2.63249562 2.19948434 3.9375 3.3125 C4.76378906 3.94800781 5.59007813 4.58351563 6.44140625 5.23828125 C19.78134917 16.32358593 27.79933078 34.31513462 29.9375 51.3125 C31.50378154 73.59340636 26.62531439 93.09112323 11.9375 110.3125 C11.30199219 111.13878906 10.66648438 111.96507813 10.01171875 112.81640625 C-1.07358593 126.15634917 -19.06513462 134.17433078 -36.0625 136.3125 C-58.34340636 137.87878154 -77.84112323 133.00031439 -95.0625 118.3125 C-95.88878906 117.67699219 -96.71507813 117.04148438 -97.56640625 116.38671875 C-110.90634917 105.30141407 -118.92433078 87.30986538 -121.0625 70.3125 C-122.62878154 48.03159364 -117.75031439 28.53387677 -103.0625 11.3125 C-102.42699219 10.48621094 -101.79148437 9.65992187 -101.13671875 8.80859375 C-76.88711992 -20.37312688 -29.05689267 -22.3072685 0 0 Z " fill="#92B74A" transform="translate(121.0625,14.6875)"/>
<path d="M0 0 C1.319991 1.09520045 2.63249562 2.19948434 3.9375 3.3125 C4.76378906 3.94800781 5.59007813 4.58351563 6.44140625 5.23828125 C19.78134917 16.32358593 27.79933078 34.31513462 29.9375 51.3125 C31.50378154 73.59340636 26.62531439 93.09112323 11.9375 110.3125 C11.30199219 111.13878906 10.66648438 111.96507813 10.01171875 112.81640625 C-1.07358593 126.15634917 -19.06513462 134.17433078 -36.0625 136.3125 C-58.34340636 137.87878154 -77.84112323 133.00031439 -95.0625 118.3125 C-95.88878906 117.67699219 -96.71507813 117.04148438 -97.56640625 116.38671875 C-110.90634917 105.30141407 -118.92433078 87.30986538 -121.0625 70.3125 C-122.62878154 48.03159364 -117.75031439 28.53387677 -103.0625 11.3125 C-102.42699219 10.48621094 -101.79148437 9.65992187 -101.13671875 8.80859375 C-76.88711992 -20.37312688 -29.05689267 -22.3072685 0 0 Z M-96.0625 14.3125 C-96.72636719 14.94542969 -97.39023438 15.57835938 -98.07421875 16.23046875 C-109.60608681 27.9696513 -114.26033075 44.98511594 -114.375 61 C-114.11700749 78.25683205 -108.9817298 93.56894964 -97.0625 106.3125 C-96.36253906 107.09109375 -95.66257812 107.8696875 -94.94140625 108.671875 C-82.89898417 121.46560684 -67.04851468 128.8100905 -49.53515625 129.53125 C-40.61518529 129.76510028 -32.49200523 129.53363605 -24.0625 126.3125 C-23.09183594 125.9721875 -22.12117188 125.631875 -21.12109375 125.28125 C-5.36930298 119.32655004 8.25461865 107.34096546 15.9375 92.3125 C23.7886768 74.65849178 26.2234628 54.78450537 19.1875 36.34716797 C14.88122797 25.94283595 9.00265339 18.07982645 0.9375 10.3125 C0.28136719 9.63703125 -0.37476562 8.9615625 -1.05078125 8.265625 C-13.93546446 -4.20520329 -31.86254227 -8.15233978 -49.140625 -7.890625 C-68.15141967 -7.29243422 -83.12929683 0.90249671 -96.0625 14.3125 Z " fill="#282625" transform="translate(121.0625,14.6875)"/>
<path d="M0 0 C13.27807865 6.64887494 21.28307431 16.4821906 26.74609375 30.08203125 C27.85321544 34.10748688 28.02008224 37.78821589 28.01171875 41.9453125 C28.0103894 43.13302246 28.0103894 43.13302246 28.0090332 44.34472656 C27.82688479 53.45399622 25.03744434 61.39900643 20.63671875 69.3203125 C20.30671875 69.3203125 19.97671875 69.3203125 19.63671875 69.3203125 C19.6109375 68.37671875 19.58515625 67.433125 19.55859375 66.4609375 C18.81342302 49.59298195 13.64623594 35.24787308 1.16015625 23.41796875 C-2.13368783 20.67989712 -5.34746205 18.77486119 -9.36328125 17.3203125 C-10.29914063 16.96839844 -11.235 16.61648437 -12.19921875 16.25390625 C-18.18002563 14.48919904 -24.96776768 14.04435864 -30.87890625 16.265625 C-34.78022298 18.56306708 -37.78365416 20.97633799 -39.36328125 25.3203125 C-39.89959272 30.98515691 -39.89959272 30.98515691 -38.36328125 36.3203125 C-37.93015625 35.3715625 -37.49703125 34.4228125 -37.05078125 33.4453125 C-35.36328125 30.3203125 -35.36328125 30.3203125 -32.36328125 28.3203125 C-27.53629956 27.7753307 -25.46735756 27.60726321 -21.36328125 30.2578125 C-19.03608552 33.82133097 -18.6340381 35.91822752 -18.87109375 40.1015625 C-19.72184088 43.93667653 -21.49968007 45.65195685 -24.36328125 48.3203125 C-29.17848649 51.20154187 -34.0864397 50.98535414 -39.48046875 49.890625 C-45.65834145 47.94351337 -50.11360248 44.02191161 -53.46484375 38.5078125 C-56.37109537 31.98911728 -56.60235201 24.35302892 -54.51953125 17.57421875 C-49.81372718 7.12924148 -41.71199652 2.36617533 -31.36328125 -1.6796875 C-21.97536033 -4.80899447 -9.03278697 -3.60303636 0 0 Z " fill="#282625" transform="translate(94.36328125,30.6796875)"/>
<path d="M0 0 C0.33 0 0.66 0 1 0 C1.03738281 0.96679688 1.07476562 1.93359375 1.11328125 2.9296875 C1.96606946 19.81823837 6.69909168 33.98968484 19.3671875 45.90234375 C28.39754946 53.09715736 37.61564461 55.10821159 49 54 C53.58974704 52.39635344 56.2043795 50.11884133 59 46.1875 C60.2733168 42.12880271 60.34824246 39.24855799 60 35 C59.34 34.01 58.68 33.02 58 32 C57.731875 33.11375 57.46375 34.2275 57.1875 35.375 C56 39 56 39 53 41 C48.17301831 41.5449818 46.10407631 41.71304929 42 39.0625 C39.68999749 35.52530866 39.21800115 33.44791328 39.43359375 29.2890625 C40.42207916 25.29421801 42.94992835 22.65498465 46 20 C50.71983212 17.64008394 57.28001147 18.49709759 62.1875 20.0625 C67.94868534 22.54657384 71.68702226 26.88229397 74.9375 32.125 C77.48444889 39.25325318 77.09317106 47.53031405 74 54.375 C69.64032355 61.9399597 63.01490015 66.78489747 55 70 C54.12085938 70.35835938 53.24171875 70.71671875 52.3359375 71.0859375 C41.0877274 74.16799975 27.40908256 73.0102307 17.20703125 67.48828125 C7.00364207 61.36073984 1.07246197 54.75976782 -4 44 C-4.34289062 43.30390625 -4.68578125 42.6078125 -5.0390625 41.890625 C-8.9135274 32.5484573 -8.31774796 19.60016536 -4.93359375 10.16015625 C-3.43098941 6.68341902 -1.7925614 3.33787295 0 0 Z " fill="#282625" transform="translate(36,51)"/>
</svg>
