<?xml version="1.0" encoding="UTF-8"?>
<svg version="1.1" xmlns="http://www.w3.org/2000/svg" width="151" height="151">
<path d="M0 0 C1.319991 1.09520045 2.63249562 2.19948434 3.9375 3.3125 C4.76378906 3.94800781 5.59007813 4.58351563 6.44140625 5.23828125 C19.78134917 16.32358593 27.79933078 34.31513462 29.9375 51.3125 C31.50378154 73.59340636 26.62531439 93.09112323 11.9375 110.3125 C11.30199219 111.13878906 10.66648438 111.96507813 10.01171875 112.81640625 C-1.07358593 126.15634917 -19.06513462 134.17433078 -36.0625 136.3125 C-58.34340636 137.87878154 -77.84112323 133.00031439 -95.0625 118.3125 C-95.88878906 117.67699219 -96.71507813 117.04148438 -97.56640625 116.38671875 C-110.90634917 105.30141407 -118.92433078 87.30986538 -121.0625 70.3125 C-122.62878154 48.03159364 -117.75031439 28.53387677 -103.0625 11.3125 C-102.42699219 10.48621094 -101.79148437 9.65992187 -101.13671875 8.80859375 C-76.88711992 -20.37312688 -29.05689267 -22.3072685 0 0 Z " fill="#9DCDED" transform="translate(121.0625,14.6875)"/>
<path d="M0 0 C1.319991 1.09520045 2.63249562 2.19948434 3.9375 3.3125 C4.76378906 3.94800781 5.59007813 4.58351563 6.44140625 5.23828125 C19.78134917 16.32358593 27.79933078 34.31513462 29.9375 51.3125 C31.50378154 73.59340636 26.62531439 93.09112323 11.9375 110.3125 C11.30199219 111.13878906 10.66648438 111.96507813 10.01171875 112.81640625 C-1.07358593 126.15634917 -19.06513462 134.17433078 -36.0625 136.3125 C-58.34340636 137.87878154 -77.84112323 133.00031439 -95.0625 118.3125 C-95.88878906 117.67699219 -96.71507813 117.04148438 -97.56640625 116.38671875 C-110.90634917 105.30141407 -118.92433078 87.30986538 -121.0625 70.3125 C-122.62878154 48.03159364 -117.75031439 28.53387677 -103.0625 11.3125 C-102.42699219 10.48621094 -101.79148437 9.65992187 -101.13671875 8.80859375 C-76.88711992 -20.37312688 -29.05689267 -22.3072685 0 0 Z M-96.0625 14.3125 C-96.72636719 14.94542969 -97.39023438 15.57835938 -98.07421875 16.23046875 C-109.60608681 27.9696513 -114.26033075 44.98511594 -114.375 61 C-114.11700749 78.25683205 -108.9817298 93.56894964 -97.0625 106.3125 C-96.36253906 107.09109375 -95.66257812 107.8696875 -94.94140625 108.671875 C-82.89898417 121.46560684 -67.04851468 128.8100905 -49.53515625 129.53125 C-40.61518529 129.76510028 -32.49200523 129.53363605 -24.0625 126.3125 C-23.09183594 125.9721875 -22.12117188 125.631875 -21.12109375 125.28125 C-5.36930298 119.32655004 8.25461865 107.34096546 15.9375 92.3125 C23.7886768 74.65849178 26.2234628 54.78450537 19.1875 36.34716797 C14.88122797 25.94283595 9.00265339 18.07982645 0.9375 10.3125 C0.28136719 9.63703125 -0.37476562 8.9615625 -1.05078125 8.265625 C-13.93546446 -4.20520329 -31.86254227 -8.15233978 -49.140625 -7.890625 C-68.15141967 -7.29243422 -83.12929683 0.90249671 -96.0625 14.3125 Z " fill="#282627" transform="translate(121.0625,14.6875)"/>
<path d="M0 0 C1.72153338 2.58230007 3.26477534 5.18792129 4.8125 7.875 C7.1702022 11.81213378 9.51530141 14.96205764 13 18 C13.825 18.721875 14.65 19.44375 15.5 20.1875 C18.92442192 22.67020589 21.67583459 23.920231 25.91796875 24.17578125 C29 25 29 25 31.0546875 27.625 C31.95574219 29.295625 31.95574219 29.295625 32.875 31 C38.45919473 41.16117721 38.45919473 41.16117721 47.36328125 48.046875 C50.66493867 47.98817887 52.16429623 46.7613134 54.54541016 44.5546875 C56.87791169 42.06167478 58.81714518 39.34346712 60.6875 36.5 C61.06455078 35.94441406 61.44160156 35.38882813 61.83007812 34.81640625 C63.5098573 32.32458723 65.07528997 29.85602796 66.46875 27.19140625 C68.38440081 24.44987537 69.59230928 24.14485372 72.8125 23.4375 C81.43167856 21.15485213 86.74190071 16.04809053 92 9 C93.58143219 6.07567566 94.87631198 3.12710547 96 0 C96.33 0 96.66 0 97 0 C96.92550093 18.99726231 88.21574281 37.76955222 76 52 C75.31035156 52.82242188 74.62070313 53.64484375 73.91015625 54.4921875 C68.78755508 60.41603912 63.31997894 65.38233797 57 70 C55.89398438 70.82951172 55.89398438 70.82951172 54.765625 71.67578125 C54.07984375 72.15402344 53.3940625 72.63226563 52.6875 73.125 C52.09324219 73.54007812 51.49898437 73.95515625 50.88671875 74.3828125 C49 75 49 75 46.65625 74.3984375 C43.46543388 72.71856666 40.64382315 70.71427245 37.8125 68.5 C37.24515137 68.05785156 36.67780273 67.61570312 36.09326172 67.16015625 C17.2196874 52.18432768 2.9995966 30.22751103 0 6 C-0.125 2.3125 -0.125 2.3125 0 0 Z " fill="#292628" transform="translate(27,48)"/>
<path d="M0 0 C4.8911484 4.06838173 9.47350753 8.34438078 13.9375 12.875 C14.82018555 13.76445313 14.82018555 13.76445313 15.72070312 14.671875 C17.14947674 16.11226466 18.57508132 17.5557967 20 19 C18.4989989 23.96484978 16.42259632 28.41683691 14.0859375 33.0234375 C13.71143463 33.76961334 13.33693176 34.51578918 12.95108032 35.28457642 C11.76282034 37.64996797 10.56900618 40.0125047 9.375 42.375 C8.56473474 43.98549127 7.75483502 45.59616651 6.9453125 47.20703125 C4.96776546 51.14016234 2.98523484 55.07074408 1 59 C-2.27296193 55.94656953 -4.05876827 52.36790769 -6.046875 48.41015625 C-6.61006439 47.29875526 -6.61006439 47.29875526 -7.18463135 46.16490173 C-7.97439272 44.60053979 -8.76092374 43.03454337 -9.54443359 41.46704102 C-10.74712774 39.06822882 -11.96868685 36.6796695 -13.19140625 34.29101562 C-13.95690405 32.76881943 -14.72126605 31.24605142 -15.484375 29.72265625 C-15.85197937 29.00900406 -16.21958374 28.29535187 -16.59832764 27.56007385 C-19.07714288 22.53326871 -19.07714288 22.53326871 -18.6978302 19.91117859 C-17.70119432 17.18164759 -16.03329486 15.69693203 -13.96484375 13.671875 C-12.75151367 12.47304688 -12.75151367 12.47304688 -11.51367188 11.25 C-10.66353516 10.425 -9.81339844 9.6 -8.9375 8.75 C-8.08349609 7.90953125 -7.22949219 7.0690625 -6.34960938 6.203125 C-4.23964588 4.12852403 -2.12300292 2.06124168 0 0 Z " fill="#272526" transform="translate(75,28)"/>
</svg>
