<?xml version="1.0" encoding="UTF-8"?>
<svg version="1.1" xmlns="http://www.w3.org/2000/svg" width="151" height="142">
<path d="M0 0 C8.51482751 5.19159447 15.31115605 12.40649833 18.109375 22.07421875 C20.19234286 31.91872162 19.08986431 41.48674099 14.171875 50.32421875 C8.11961124 59.06467074 0.63412597 63.63173204 -9.6875 65.875 C-20.97283301 67.48919564 -30.11646918 64.32178668 -39.18359375 57.5703125 C-45.77193829 51.64945503 -49.22928522 44.3693114 -50.26953125 35.60546875 C-50.61327632 24.69433487 -48.73813312 16.40367983 -41.703125 7.94921875 C-31.18420113 -3.00509104 -13.91892412 -6.65586137 0 0 Z " fill="#242525" transform="translate(131.828125,75.67578125)"/>
<path d="M0 0 C8.28685932 5.21609419 14.69598651 11.85281302 17.91015625 21.203125 C19.57668383 30.61410429 19.6563058 41.28995084 14.30859375 49.453125 C13.88449219 50.14664063 13.46039063 50.84015625 13.0234375 51.5546875 C7.49157613 59.78313867 0.02605393 63.99490832 -9.57421875 66.046875 C-20.34121806 67.45009295 -28.99323153 64.75750719 -37.87890625 58.828125 C-44.01388069 54.00341456 -47.6755142 46.89359928 -49.69140625 39.453125 C-50.78978579 27.24323154 -49.58012213 17.79963476 -41.56640625 8.140625 C-31.228357 -2.74513547 -13.82440816 -6.62079581 0 0 Z " fill="#242625" transform="translate(49.69140625,75.546875)"/>
<path d="M0 0 C0.62777344 0.34933594 1.25554687 0.69867188 1.90234375 1.05859375 C7.06226442 4.3216508 10.04527154 8.73521111 13 14 C13.34289062 14.59296875 13.68578125 15.1859375 14.0390625 15.796875 C17.52212354 23.15362074 17.0615097 33.18529528 15.34375 40.9765625 C11.92365516 50.49975763 4.82820521 57.30954918 -4 62 C-12.22920833 65.36073962 -23.12545093 65.46742226 -31.5 62.4375 C-40.5515885 58.14028122 -47.73080976 50.50142984 -51.2265625 41.1328125 C-53.80488403 30.68930812 -53.02983278 20.93152258 -47.703125 11.515625 C-41.61506 2.52316202 -34.44687373 -2.39381155 -23.8125 -4.6875 C-15.07046617 -5.40406015 -7.68213331 -4.3002454 0 0 Z " fill="#BC0720" transform="translate(93,5)"/>
<path d="M0 0 C7.66699253 4.67465911 13.96507944 11.33494184 17.609375 19.57421875 C18.18307313 22.37896514 17.95498871 23.64905659 17.171875 26.32421875 C16.8315625 25.81632812 16.49125 25.3084375 16.140625 24.78515625 C10.50732475 16.78467132 3.94410974 11.25962888 -5.828125 9.32421875 C-14.35280862 8.16876465 -21.4040328 10.04785881 -28.828125 14.32421875 C-35.4664992 19.40317062 -40.25244974 26.0256624 -41.828125 34.32421875 C-42.12702 41.04935618 -42.0608821 47.69814932 -40.828125 54.32421875 C-46.83065703 49.32210872 -49.38140895 43.48003172 -50.21484375 35.7265625 C-50.53942752 24.72429189 -48.80910335 16.48896972 -41.703125 7.94921875 C-31.18420113 -3.00509104 -13.91892412 -6.65586137 0 0 Z " fill="#0C0D0D" transform="translate(131.828125,75.67578125)"/>
<path d="M0 0 C7.6090472 4.78945103 14.11782047 10.90426074 17.30859375 19.453125 C17.90865914 22.18069497 18.15572068 24.65045202 18.30859375 27.453125 C17.75171875 26.751875 17.19484375 26.050625 16.62109375 25.328125 C15.85796875 24.379375 15.09484375 23.430625 14.30859375 22.453125 C13.58671875 21.463125 12.86484375 20.473125 12.12109375 19.453125 C7.33137681 13.71729113 -0.82039653 9.9556895 -8.15234375 9.19921875 C-15.14755805 8.89550496 -20.51382606 10.19959944 -26.69140625 13.453125 C-27.40296875 13.81921875 -28.11453125 14.1853125 -28.84765625 14.5625 C-35.58370338 18.75957552 -39.53611235 25.95449832 -41.69140625 33.453125 C-42.84166735 40.80041779 -41.80821495 48.1659482 -40.69140625 55.453125 C-45.46391468 51.36240349 -48.56284227 45.63852373 -49.69140625 39.453125 C-50.52320286 27.09889996 -49.74911644 18.00332524 -41.56640625 8.140625 C-31.228357 -2.74513547 -13.82440816 -6.62079581 0 0 Z " fill="#0C0D0D" transform="translate(49.69140625,75.546875)"/>
<path d="M0 0 C0.62777344 0.34933594 1.25554687 0.69867188 1.90234375 1.05859375 C7.06226442 4.3216508 10.04527154 8.73521111 13 14 C13.34289062 14.59296875 13.68578125 15.1859375 14.0390625 15.796875 C17.52212354 23.15362074 17.0615097 33.18529528 15.34375 40.9765625 C11.92365516 50.49975763 4.82820521 57.30954918 -4 62 C-12.22920833 65.36073962 -23.12545093 65.46742226 -31.5 62.4375 C-40.5515885 58.14028122 -47.73080976 50.50142984 -51.2265625 41.1328125 C-53.80488403 30.68930812 -53.02983278 20.93152258 -47.703125 11.515625 C-41.61506 2.52316202 -34.44687373 -2.39381155 -23.8125 -4.6875 C-15.07046617 -5.40406015 -7.68213331 -4.3002454 0 0 Z M-42 7.8125 C-43.04531344 9.17472998 -44.04814944 10.57089846 -45 12 C-45.43183594 12.64324219 -45.86367188 13.28648438 -46.30859375 13.94921875 C-50.12729409 20.88630414 -50.22743166 29.31421294 -49 37 C-45.93116396 46.90091626 -39.94392614 53.54491136 -30.9375 58.4375 C-23.08458181 61.57595 -13.46536945 61.25472661 -5.5625 58.4375 C2.75563561 54.45086452 8.08004701 48.84661652 11.92578125 40.44921875 C14.48169091 32.24242518 14.53113834 23.23861737 10.8125 15.375 C9.91833899 13.88969921 8.98426662 12.4271866 8 11 C7.278125 9.9275 6.55625 8.855 5.8125 7.75 C-1.87679201 0.23158114 -9.43917011 -2.37068377 -20.00195312 -2.453125 C-28.81827952 -2.23250471 -35.98706081 1.4556003 -42 7.8125 Z " fill="#252121" transform="translate(93,5)"/>
<path d="M0 0 C0.62777344 0.34933594 1.25554687 0.69867188 1.90234375 1.05859375 C9.38120173 5.78811225 13.56524863 13.69320122 16 22 C15.505 23.485 15.505 23.485 15 25 C14.46375 24.05125 13.9275 23.1025 13.375 22.125 C13.00632812 21.48949219 12.63765625 20.85398437 12.2578125 20.19921875 C11.37362005 18.65325494 10.51649865 17.09164687 9.6796875 15.51953125 C6.33685758 9.48234389 2.99775964 5.47480147 -3 2 C-3.58136719 1.66097656 -4.16273437 1.32195313 -4.76171875 0.97265625 C-12.21592586 -2.53615708 -21.72721478 -2.37391726 -29.42578125 0.1015625 C-35.58192204 2.96880615 -40.37279669 6.21088743 -44 12 C-44.40992188 12.62132813 -44.81984375 13.24265625 -45.2421875 13.8828125 C-49.29713375 21.23764604 -49.53070181 30.98693581 -47.47558594 39.06005859 C-46.47106694 42.22314324 -45.28281742 45.24305231 -43.99609375 48.3046875 C-43.66738281 49.19414063 -43.33867188 50.08359375 -43 51 C-43.33 51.66 -43.66 52.32 -44 53 C-50.9317348 45.57314129 -52.65186437 37.24776463 -52.6171875 27.40820312 C-52.2235554 18.18245082 -47.9922001 10.86276502 -42 4 C-29.57700549 -6.0061574 -14.0306988 -7.85399648 0 0 Z " fill="#120D0D" transform="translate(93,5)"/>
<path d="M0 0 C0.66 0 1.32 0 2 0 C2.25523438 1.08667969 2.25523438 1.08667969 2.515625 2.1953125 C4.19112275 8.87947906 5.80213301 14.17835266 11.125 18.875 C16.43655377 20.95343408 21.48438271 21.01045715 26.80078125 18.875 C28.54392248 17.98703225 30.26890151 17.06201813 31.96875 16.09375 C34 15 34 15 36 15 C33.61289153 20.40609859 29.48044685 23.75977657 24.25 26.375 C17.72871212 27.62909382 11.49357232 28.32278223 5.5625 24.875 C0.7175327 21.32070022 -1.96428407 17.53358526 -2.9375 11.5625 C-3.29672293 6.95507552 -2.14854208 4.03925911 0 0 Z " fill="#0F0408" transform="translate(61,29)"/>
<path d="M0 0 C7.13233966 0.26416073 12.51559302 2.34342804 18 7 C22.19260222 12.61827457 24.00481934 18.07791119 23 25 C21.17736323 30.29340252 18.79369492 33.92711864 14 37 C10.52674819 38.1577506 7.63932552 38.06866652 4 38 C4.38671875 37.5875 4.7734375 37.175 5.171875 36.75 C10.87365262 30.42723669 15.00231389 24.35093848 14.6484375 15.53125 C13.22828475 9.98752117 8.81590928 5.84978141 4.1328125 2.7734375 C2.39015346 1.84205605 2.39015346 1.84205605 0 1 C0 0.67 0 0.34 0 0 Z " fill="#0D0408" transform="translate(73,10)"/>
<path d="M0 0 C5.01039585 2.32625522 7.27188152 5.38318411 10 10 C9.34 10.33 8.68 10.66 8 11 C6.65615234 10.54560547 6.65615234 10.54560547 5.28515625 10.08203125 C1.81781258 8.93999297 -0.92399436 8.70038727 -4.5625 8.6875 C-5.65691406 8.67074219 -6.75132813 8.65398438 -7.87890625 8.63671875 C-11.3754135 9.04369644 -13.1941795 9.91035047 -16 12 C-20.3493977 17.84061978 -21.11099575 23.87626859 -22 31 C-25.57488507 25.63767239 -25.60341842 21.37037446 -25 15 C-23.21918031 8.7027641 -19.23335864 4.72522327 -14 1 C-9.81388848 -1.09305576 -4.55867052 -0.42364608 0 0 Z " fill="#0F0408" transform="translate(76,15)"/>
<path d="M0 0 C-1.39750048 3.15835107 -3.05198234 5.32272825 -5.5 7.75 C-6.41265625 8.67039062 -6.41265625 8.67039062 -7.34375 9.609375 C-9 11 -9 11 -11 11 C-9.60249952 7.84164893 -7.94801766 5.67727175 -5.5 3.25 C-4.8915625 2.63640625 -4.283125 2.0228125 -3.65625 1.390625 C-2 0 -2 0 0 0 Z " fill="#1E1F1E" transform="translate(105,89)"/>
<path d="M0 0 C0.66 0.33 1.32 0.66 2 1 C-1.3 4.3 -4.6 7.6 -8 11 C-8 6.67750434 -5.85084926 5.11604454 -3 2 C-2.01 1.34 -1.02 0.68 0 0 Z " fill="#1C1C1C" transform="translate(21,89)"/>
<path d="M0 0 C0 3.9765245 -1.38011503 5.0890167 -4 8 C-6.25 9.8125 -6.25 9.8125 -8 11 C-8.66 10.67 -9.32 10.34 -10 10 C-6.7 6.7 -3.4 3.4 0 0 Z " fill="#1E1F1E" transform="translate(62,125)"/>
</svg>
