<?xml version="1.0" encoding="UTF-8"?>
<svg version="1.1" xmlns="http://www.w3.org/2000/svg" width="151" height="151">
<path d="M0 0 C1.319991 1.09520045 2.63249562 2.19948434 3.9375 3.3125 C4.76378906 3.94800781 5.59007813 4.58351563 6.44140625 5.23828125 C19.78134917 16.32358593 27.79933078 34.31513462 29.9375 51.3125 C31.50378154 73.59340636 26.62531439 93.09112323 11.9375 110.3125 C11.30199219 111.13878906 10.66648438 111.96507813 10.01171875 112.81640625 C-1.07358593 126.15634917 -19.06513462 134.17433078 -36.0625 136.3125 C-58.34340636 137.87878154 -77.84112323 133.00031439 -95.0625 118.3125 C-95.88878906 117.67699219 -96.71507813 117.04148438 -97.56640625 116.38671875 C-110.90634917 105.30141407 -118.92433078 87.30986538 -121.0625 70.3125 C-122.62878154 48.03159364 -117.75031439 28.53387677 -103.0625 11.3125 C-102.42699219 10.48621094 -101.79148437 9.65992187 -101.13671875 8.80859375 C-76.88711992 -20.37312688 -29.05689267 -22.3072685 0 0 Z " fill="#F6E84B" transform="translate(121.0625,14.6875)"/>
<path d="M0 0 C1.319991 1.09520045 2.63249562 2.19948434 3.9375 3.3125 C4.76378906 3.94800781 5.59007813 4.58351563 6.44140625 5.23828125 C19.78134917 16.32358593 27.79933078 34.31513462 29.9375 51.3125 C31.50378154 73.59340636 26.62531439 93.09112323 11.9375 110.3125 C11.30199219 111.13878906 10.66648438 111.96507813 10.01171875 112.81640625 C-1.07358593 126.15634917 -19.06513462 134.17433078 -36.0625 136.3125 C-58.34340636 137.87878154 -77.84112323 133.00031439 -95.0625 118.3125 C-95.88878906 117.67699219 -96.71507813 117.04148438 -97.56640625 116.38671875 C-110.90634917 105.30141407 -118.92433078 87.30986538 -121.0625 70.3125 C-122.62878154 48.03159364 -117.75031439 28.53387677 -103.0625 11.3125 C-102.42699219 10.48621094 -101.79148437 9.65992187 -101.13671875 8.80859375 C-76.88711992 -20.37312688 -29.05689267 -22.3072685 0 0 Z M-96.0625 14.3125 C-96.72636719 14.94542969 -97.39023438 15.57835938 -98.07421875 16.23046875 C-109.60691111 27.97049041 -114.25853619 44.9844619 -114.375 61 C-114.09889133 80.74834378 -106.81465759 96.28843877 -93.25 110.5625 C-78.78081576 124.50151566 -61.70853723 129.67670498 -42.05273438 129.61743164 C-35.68307853 129.48504719 -30.04165786 128.59527752 -24.0625 126.3125 C-22.63550781 125.77302734 -22.63550781 125.77302734 -21.1796875 125.22265625 C-18.79045605 124.28759492 -16.42163059 123.32063173 -14.0625 122.3125 C-15.78713006 114.44461503 -21.02125474 107.48883034 -27.0625 102.3125 C-36.44922882 96.5496896 -47.31184276 91.61860421 -57.84741211 88.48388672 C-60.0625 87.3125 -60.0625 87.3125 -61.10595703 85.00195312 C-61.30044434 84.04224609 -61.49493164 83.08253906 -61.6953125 82.09375 C-61.92508789 81.0109375 -62.15486328 79.928125 -62.39160156 78.8125 C-62.72369629 77.08 -62.72369629 77.08 -63.0625 75.3125 C-63.29678711 74.178125 -63.53107422 73.04375 -63.77246094 71.875 C-64.52299951 68.19257464 -65.23476286 64.50433448 -65.9375 60.8125 C-66.19540155 59.46930551 -66.45337813 58.12612542 -66.71142578 56.78295898 C-69.2884129 43.31566864 -71.69855669 29.81870767 -74.0625 16.3125 C-73.0209375 17.05113281 -71.979375 17.78976563 -70.90625 18.55078125 C-63.15290754 24.041134 -55.37881315 29.49646633 -47.53857422 34.86206055 C-40.19460916 39.89336978 -32.89801315 44.99274029 -25.60302734 50.09472656 C-24.17917725 51.08811035 -24.17917725 51.08811035 -22.7265625 52.1015625 C-21.87529785 52.69662598 -21.0240332 53.29168945 -20.14697266 53.90478516 C-18.12861155 55.33359534 -18.12861155 55.33359534 -16.0625 56.3125 C-16.05951904 57.3641333 -16.05653809 58.4157666 -16.0534668 59.49926758 C-16.16645087 88.32985142 -16.16645087 88.32985142 -3.0625 113.3125 C7.490852 108.57283085 14.30680364 96.92044636 18.515625 86.609375 C25.0192199 69.04219338 25.12853779 49.49153712 17.42382812 32.25 C13.26747845 23.55870246 7.83925773 16.95939224 0.9375 10.3125 C0.28136719 9.63703125 -0.37476562 8.9615625 -1.05078125 8.265625 C-13.93546446 -4.20520329 -31.86254227 -8.15233978 -49.140625 -7.890625 C-68.15141967 -7.29243422 -83.12929683 0.90249671 -96.0625 14.3125 Z " fill="#080708" transform="translate(121.0625,14.6875)"/>
<path d="M0 0 C1.319991 1.09520045 2.63249562 2.19948434 3.9375 3.3125 C4.76378906 3.94800781 5.59007813 4.58351563 6.44140625 5.23828125 C19.78134917 16.32358593 27.79933078 34.31513462 29.9375 51.3125 C31.50378154 73.59340636 26.62531439 93.09112323 11.9375 110.3125 C11.30199219 111.13878906 10.66648438 111.96507813 10.01171875 112.81640625 C-1.07358593 126.15634917 -19.06513462 134.17433078 -36.0625 136.3125 C-58.34340636 137.87878154 -77.84112323 133.00031439 -95.0625 118.3125 C-95.88878906 117.67699219 -96.71507813 117.04148438 -97.56640625 116.38671875 C-110.90634917 105.30141407 -118.92433078 87.30986538 -121.0625 70.3125 C-122.62878154 48.03159364 -117.75031439 28.53387677 -103.0625 11.3125 C-102.42699219 10.48621094 -101.79148437 9.65992187 -101.13671875 8.80859375 C-76.88711992 -20.37312688 -29.05689267 -22.3072685 0 0 Z M-96.0625 14.3125 C-96.72636719 14.94542969 -97.39023438 15.57835938 -98.07421875 16.23046875 C-109.60691111 27.97049041 -114.25853619 44.9844619 -114.375 61 C-114.09889133 80.74834378 -106.81465759 96.28843877 -93.25 110.5625 C-78.77999243 124.50230882 -61.70725084 129.67665587 -42.05053711 129.61743164 C-35.67153209 129.4849451 -30.06228588 128.55066464 -24.0625 126.3125 C-22.61230469 125.79042969 -22.61230469 125.79042969 -21.1328125 125.2578125 C-19.27249965 124.58178369 -17.41743455 123.89096733 -15.5703125 123.1796875 C-13.0625 122.3125 -13.0625 122.3125 -10.4765625 121.83984375 C-7.92520969 121.2825094 -6.42436422 120.50914191 -4.3125 119 C-3.71953125 118.59136719 -3.1265625 118.18273437 -2.515625 117.76171875 C-0.90743819 116.41328053 -0.90743819 116.41328053 -0.61328125 114.390625 C0.15858306 111.47834263 1.76877175 110.36894497 4 108.375 C16.20100814 96.50374884 22.85476631 80.31166117 23.1796875 63.36499023 C23.24894823 44.61481204 18.23001847 27.89883629 4.99926758 14.26831055 C3.65896856 12.93586168 2.2987777 11.62350895 0.9375 10.3125 C0.28136719 9.63703125 -0.37476562 8.9615625 -1.05078125 8.265625 C-13.93546446 -4.20520329 -31.86254227 -8.15233978 -49.140625 -7.890625 C-68.15141967 -7.29243422 -83.12929683 0.90249671 -96.0625 14.3125 Z " fill="#292625" transform="translate(121.0625,14.6875)"/>
<path d="M0 0 C5.57359184 4.04358623 10.83760704 8.3576323 16.07226562 12.82275391 C20.964593 16.98971598 25.96065527 21.01220393 31 25 C32.87575492 26.49905586 34.75076961 27.99903849 36.625 29.5 C37.46289062 30.1703125 38.30078125 30.840625 39.1640625 31.53125 C39.76992187 32.0159375 40.37578125 32.500625 41 33 C39.60366893 36.18559952 37.95442507 38.23943845 35.4375 40.625 C32.85984611 43.04521959 32.85984611 43.04521959 31 46 C27.76637121 44.64389319 26.30924523 43.41710447 24.5546875 40.39453125 C24.12244873 39.66548584 23.69020996 38.93644043 23.24487305 38.18530273 C22.79281494 37.40227783 22.34075684 36.61925293 21.875 35.8125 C20.90225951 34.17298145 19.92695211 32.53498344 18.94921875 30.8984375 C18.45856934 30.07569336 17.96791992 29.25294922 17.46240234 28.40527344 C15.30082713 24.85004155 13.01199987 21.38770667 10.6875 17.9375 C10.27628906 17.32535645 9.86507812 16.71321289 9.44140625 16.08251953 C7.6527179 13.42779822 5.85095507 10.78223375 4.04296875 8.140625 C3.49253906 7.33109375 2.94210938 6.5215625 2.375 5.6875 C1.90835938 5.01074219 1.44171875 4.33398438 0.9609375 3.63671875 C0 2 0 2 0 0 Z " fill="#F0E249" transform="translate(57,44)"/>
</svg>
