<?xml version="1.0" encoding="UTF-8"?>
<svg version="1.1" xmlns="http://www.w3.org/2000/svg" width="151" height="151">
<path d="M0 0 C1.319991 1.09520045 2.63249562 2.19948434 3.9375 3.3125 C4.76378906 3.94800781 5.59007813 4.58351563 6.44140625 5.23828125 C19.78134917 16.32358593 27.79933078 34.31513462 29.9375 51.3125 C31.50378154 73.59340636 26.62531439 93.09112323 11.9375 110.3125 C11.30199219 111.13878906 10.66648438 111.96507813 10.01171875 112.81640625 C-1.07358593 126.15634917 -19.06513462 134.17433078 -36.0625 136.3125 C-58.34340636 137.87878154 -77.84112323 133.00031439 -95.0625 118.3125 C-95.88878906 117.67699219 -96.71507813 117.04148438 -97.56640625 116.38671875 C-110.90634917 105.30141407 -118.92433078 87.30986538 -121.0625 70.3125 C-122.62878154 48.03159364 -117.75031439 28.53387677 -103.0625 11.3125 C-102.42699219 10.48621094 -101.79148437 9.65992187 -101.13671875 8.80859375 C-76.88711992 -20.37312688 -29.05689267 -22.3072685 0 0 Z " fill="#BF0720" transform="translate(121.0625,14.6875)"/>
<path d="M0 0 C1.319991 1.09520045 2.63249562 2.19948434 3.9375 3.3125 C4.76378906 3.94800781 5.59007813 4.58351563 6.44140625 5.23828125 C19.78134917 16.32358593 27.79933078 34.31513462 29.9375 51.3125 C31.50378154 73.59340636 26.62531439 93.09112323 11.9375 110.3125 C11.30199219 111.13878906 10.66648438 111.96507813 10.01171875 112.81640625 C-1.07358593 126.15634917 -19.06513462 134.17433078 -36.0625 136.3125 C-58.34340636 137.87878154 -77.84112323 133.00031439 -95.0625 118.3125 C-95.88878906 117.67699219 -96.71507813 117.04148438 -97.56640625 116.38671875 C-110.90634917 105.30141407 -118.92433078 87.30986538 -121.0625 70.3125 C-122.62878154 48.03159364 -117.75031439 28.53387677 -103.0625 11.3125 C-102.42699219 10.48621094 -101.79148437 9.65992187 -101.13671875 8.80859375 C-76.88711992 -20.37312688 -29.05689267 -22.3072685 0 0 Z M-96.0625 14.3125 C-96.72636719 14.94542969 -97.39023438 15.57835938 -98.07421875 16.23046875 C-109.60691111 27.97049041 -114.25853619 44.9844619 -114.375 61 C-114.09889133 80.74834378 -106.81465759 96.28843877 -93.25 110.5625 C-78.78636115 124.49617346 -61.70173989 129.69157308 -42.04833984 129.61523438 C-35.66017761 129.47820925 -30.0582006 128.60361518 -24.0625 126.3125 C-23.09183594 125.9721875 -22.12117188 125.631875 -21.12109375 125.28125 C-4.2868136 118.91733311 8.80964729 106.24309131 16.9375 90.3125 C24.33165644 73.57084542 25.79122283 53.65184531 19.1875 36.34716797 C14.88122797 25.94283595 9.00265339 18.07982645 0.9375 10.3125 C0.28136719 9.63703125 -0.37476562 8.9615625 -1.05078125 8.265625 C-13.93546446 -4.20520329 -31.86254227 -8.15233978 -49.140625 -7.890625 C-68.15141967 -7.29243422 -83.12929683 0.90249671 -96.0625 14.3125 Z " fill="#201D1C" transform="translate(121.0625,14.6875)"/>
<path d="M0 0 C0.33 0 0.66 0 1 0 C1.12375 0.8971875 1.2475 1.794375 1.375 2.71875 C3.78740301 17.31378824 9.96206835 32.76030523 21.8125 42.25 C23.18828113 43.19649604 24.58450114 44.11400257 26 45 C26.65484375 45.41507813 27.3096875 45.83015625 27.984375 46.2578125 C36.2671675 50.71059193 47.53664546 50.34633869 56.49609375 47.94921875 C65.83786697 44.4077977 74.77386259 39.87487144 82.30078125 33.25 C84 32 84 32 87 32 C75.05577463 46.36330899 63.99072817 58.8285057 45.125 63.75 C30.76299704 64.89896024 16.95761265 63.11027117 5.3671875 53.91015625 C-2.75100929 46.43414518 -8.13221847 36.99488933 -9.203125 25.89453125 C-9.41592811 16.44252643 -6.52487365 8.61160651 -1 1 C-0.67 0.67 -0.34 0.34 0 0 Z " fill="#16110C" transform="translate(45,64)"/>
<path d="M0 0 C7.58011349 5.41436678 12.53572853 12.37026783 14.4765625 21.4921875 C13.79207031 21.21503906 13.10757813 20.93789063 12.40234375 20.65234375 C0.27912534 15.66780052 0.27912534 15.66780052 -12.5234375 13.4921875 C-13.96589844 13.399375 -13.96589844 13.399375 -15.4375 13.3046875 C-26.6532461 12.87640125 -36.9135133 15.06932584 -45.58984375 22.50390625 C-56.53097286 33.75448143 -58.68868603 47.56032699 -59.1484375 62.6171875 C-59.18710937 63.6690625 -59.22578125 64.7209375 -59.265625 65.8046875 C-59.35880091 68.36702506 -59.44461132 70.92937529 -59.5234375 73.4921875 C-61.7737884 71.2418366 -62.15459071 69.94704131 -63.0234375 66.9296875 C-63.260625 66.12402344 -63.4978125 65.31835938 -63.7421875 64.48828125 C-64.12890625 63.00521484 -64.12890625 63.00521484 -64.5234375 61.4921875 C-64.69625244 60.84233887 -64.86906738 60.19249023 -65.04711914 59.52294922 C-68.40615687 45.91453994 -68.72697277 29.84861662 -61.5234375 17.4921875 C-47.94333163 -3.49524884 -22.53930894 -13.46776045 0 0 Z " fill="#16110C" transform="translate(86.5234375,35.5078125)"/>
<path d="M0 0 C17.79325484 1.24864946 35.54416109 7.45360418 48.078125 20.5390625 C56.71881174 31.6033565 60.45995044 45.06738658 59 59 C56.14746167 70.54892545 49.81484881 80.270241 40.19921875 87.3203125 C32.14916419 91.97451963 21.95826604 92.58624074 13 91 C15.84185903 88.06933287 18.74026642 85.36634378 21.875 82.75 C31.34707808 74.49091874 39.07645217 62.82698598 40.40625 50.1171875 C40.86099461 37.74028858 37.96477012 29.51909836 30 19.8125 C21.74014076 11.16328713 10.98461331 5.46109806 0 1 C0 0.67 0 0.34 0 0 Z " fill="#16110C" transform="translate(66,17)"/>
</svg>
