<?xml version="1.0" encoding="UTF-8"?>
<svg version="1.1" xmlns="http://www.w3.org/2000/svg" width="151" height="151">
<path d="M0 0 C1.33817053 1.11924189 2.6721362 2.24354938 4 3.375 C4.99 4.096875 5.98 4.81875 7 5.5625 C20.31716817 16.92451606 28.68533154 35.64898725 30.22314453 52.87451172 C31.53078233 74.88299869 26.04109682 95.11905154 11.34277344 111.92114258 C-1.99773701 126.36881537 -20.47154339 135.58642505 -40.12109375 136.75390625 C-61.9615049 137.50599202 -81.86262658 131.27605383 -98.09765625 116.28515625 C-112.4773752 102.25443671 -120.78294675 83.56044358 -121.47094727 63.58105469 C-121.71056626 41.26225686 -114.17600826 21.87040057 -98.50830078 5.83935547 C-72.16164271 -19.73967579 -29.03802319 -22.25117303 0 0 Z " fill="#010101" transform="translate(121,14.625)"/>
<path d="M0 0 C4.86288389 3.14316203 8.95902086 6.7242866 12.94921875 10.90625 C13.53316406 11.48246094 14.11710937 12.05867188 14.71875 12.65234375 C23.81287311 22.25297498 24.94921875 33.06422466 24.94921875 45.90625 C12.40921875 45.90625 -0.13078125 45.90625 -13.05078125 45.90625 C-6.79032224 55.92298441 -0.5081752 65.85873123 6.07421875 75.65625 C6.82835177 76.78240026 7.58225772 77.90870261 8.3359375 79.03515625 C8.89447418 79.86919983 8.89447418 79.86919983 9.46429443 80.72009277 C10.56405622 82.36376012 11.66144278 84.00901591 12.75878906 85.65429688 C14.26115457 87.88473698 15.77639058 90.09715587 17.31933594 92.29882812 C18.06086914 93.37068359 18.80240234 94.44253906 19.56640625 95.546875 C20.2404248 96.50625977 20.91444336 97.46564453 21.60888672 98.45410156 C22.27235107 99.66791504 22.27235107 99.66791504 22.94921875 100.90625 C21.94921875 103.90625 21.94921875 103.90625 19.25390625 105.2578125 C18.12210937 105.67804688 16.9903125 106.09828125 15.82421875 106.53125 C14.70789063 106.95664063 13.5915625 107.38203125 12.44140625 107.8203125 C-4.34696092 113.0408562 -22.14353188 110.45062439 -37.61328125 102.84375 C-53.60081682 93.74107595 -64.78379066 79.22301968 -69.7265625 61.48046875 C-73.0330663 46.65743471 -72.23227252 32.33109275 -64.40625 19.1328125 C-50.32178392 -2.04157669 -23.68556454 -12.11420913 0 0 Z " fill="#FDFDFD" transform="translate(82.05078125,30.09375)"/>
</svg>
