<?xml version="1.0" encoding="UTF-8"?>
<svg version="1.1" xmlns="http://www.w3.org/2000/svg" width="151" height="142">
<path d="M0 0 C8.51482751 5.19159447 15.31115605 12.40649833 18.109375 22.07421875 C20.19234286 31.91872162 19.08986431 41.48674099 14.171875 50.32421875 C8.11961124 59.06467074 0.63412597 63.63173204 -9.6875 65.875 C-20.97283301 67.48919564 -30.11646918 64.32178668 -39.18359375 57.5703125 C-45.77193829 51.64945503 -49.22928522 44.3693114 -50.26953125 35.60546875 C-50.61327632 24.69433487 -48.73813312 16.40367983 -41.703125 7.94921875 C-31.18420113 -3.00509104 -13.91892412 -6.65586137 0 0 Z " fill="#BC0720" transform="translate(131.828125,75.67578125)"/>
<path d="M0 0 C8.28685932 5.21609419 14.69598651 11.85281302 17.91015625 21.203125 C19.57668383 30.61410429 19.6563058 41.28995084 14.30859375 49.453125 C13.88449219 50.14664063 13.46039063 50.84015625 13.0234375 51.5546875 C7.49157613 59.78313867 0.02605393 63.99490832 -9.57421875 66.046875 C-20.34121806 67.45009295 -28.99323153 64.75750719 -37.87890625 58.828125 C-44.01388069 54.00341456 -47.6755142 46.89359928 -49.69140625 39.453125 C-50.78978579 27.24323154 -49.58012213 17.79963476 -41.56640625 8.140625 C-31.228357 -2.74513547 -13.82440816 -6.62079581 0 0 Z " fill="#BC0720" transform="translate(49.69140625,75.546875)"/>
<path d="M0 0 C0.62777344 0.34933594 1.25554687 0.69867188 1.90234375 1.05859375 C7.06226442 4.3216508 10.04527154 8.73521111 13 14 C13.34289062 14.59296875 13.68578125 15.1859375 14.0390625 15.796875 C17.52212354 23.15362074 17.0615097 33.18529528 15.34375 40.9765625 C11.92365516 50.49975763 4.82820521 57.30954918 -4 62 C-12.22920833 65.36073962 -23.12545093 65.46742226 -31.5 62.4375 C-40.5515885 58.14028122 -47.73080976 50.50142984 -51.2265625 41.1328125 C-53.80488403 30.68930812 -53.02983278 20.93152258 -47.703125 11.515625 C-41.61506 2.52316202 -34.44687373 -2.39381155 -23.8125 -4.6875 C-15.07046617 -5.40406015 -7.68213331 -4.3002454 0 0 Z " fill="#BC0720" transform="translate(93,5)"/>
<path d="M0 0 C0.62777344 0.34933594 1.25554687 0.69867188 1.90234375 1.05859375 C7.06226442 4.3216508 10.04527154 8.73521111 13 14 C13.34289062 14.59296875 13.68578125 15.1859375 14.0390625 15.796875 C17.52212354 23.15362074 17.0615097 33.18529528 15.34375 40.9765625 C11.92365516 50.49975763 4.82820521 57.30954918 -4 62 C-12.22920833 65.36073962 -23.12545093 65.46742226 -31.5 62.4375 C-40.5515885 58.14028122 -47.73080976 50.50142984 -51.2265625 41.1328125 C-53.80488403 30.68930812 -53.02983278 20.93152258 -47.703125 11.515625 C-41.61506 2.52316202 -34.44687373 -2.39381155 -23.8125 -4.6875 C-15.07046617 -5.40406015 -7.68213331 -4.3002454 0 0 Z M-42 7.8125 C-43.04531344 9.17472998 -44.04814944 10.57089846 -45 12 C-45.43183594 12.64324219 -45.86367188 13.28648438 -46.30859375 13.94921875 C-50.12729409 20.88630414 -50.22743166 29.31421294 -49 37 C-45.93116396 46.90091626 -39.94392614 53.54491136 -30.9375 58.4375 C-23.08458181 61.57595 -13.46536945 61.25472661 -5.5625 58.4375 C2.75563561 54.45086452 8.08004701 48.84661652 11.92578125 40.44921875 C14.48169091 32.24242518 14.53113834 23.23861737 10.8125 15.375 C9.91833899 13.88969921 8.98426662 12.4271866 8 11 C7.278125 9.9275 6.55625 8.855 5.8125 7.75 C-1.87679201 0.23158114 -9.43917011 -2.37068377 -20.00195312 -2.453125 C-28.81827952 -2.23250471 -35.98706081 1.4556003 -42 7.8125 Z " fill="#252121" transform="translate(93,5)"/>
<path d="M0 0 C8.28685932 5.21609419 14.69598651 11.85281302 17.91015625 21.203125 C19.57668383 30.61410429 19.6563058 41.28995084 14.30859375 49.453125 C13.88449219 50.14664063 13.46039063 50.84015625 13.0234375 51.5546875 C7.49157613 59.78313867 0.02605393 63.99490832 -9.57421875 66.046875 C-20.34121806 67.45009295 -28.99323153 64.75750719 -37.87890625 58.828125 C-44.01388069 54.00341456 -47.6755142 46.89359928 -49.69140625 39.453125 C-50.78978579 27.24323154 -49.58012213 17.79963476 -41.56640625 8.140625 C-31.228357 -2.74513547 -13.82440816 -6.62079581 0 0 Z M-31.69140625 3.453125 C-32.39007813 3.865625 -33.08875 4.278125 -33.80859375 4.703125 C-40.449871 9.11393555 -44.36198039 14.94439135 -46.609375 22.56640625 C-48.30733114 31.15909336 -47.72803878 39.02926027 -43.39453125 46.76953125 C-37.92900117 54.51236552 -31.37939784 59.5667684 -22.25390625 62.140625 C-13.10532412 63.25630575 -4.94675051 61.88809399 2.90234375 56.7578125 C9.32440309 51.47031697 12.70621896 45.26024936 15.30859375 37.453125 C16.09174159 26.57941848 15.31954304 18.68876469 8.24609375 10.203125 C2.76421133 4.43413908 -4.41331055 -0.10094171 -12.51171875 -0.78515625 C-19.90517993 -0.95120325 -25.3359941 -0.41328544 -31.69140625 3.453125 Z " fill="#252121" transform="translate(49.69140625,75.546875)"/>
<path d="M0 0 C8.51482751 5.19159447 15.31115605 12.40649833 18.109375 22.07421875 C20.19234286 31.91872162 19.08986431 41.48674099 14.171875 50.32421875 C8.11961124 59.06467074 0.63412597 63.63173204 -9.6875 65.875 C-20.97283301 67.48919564 -30.11646918 64.32178668 -39.18359375 57.5703125 C-45.77193829 51.64945503 -49.22928522 44.3693114 -50.26953125 35.60546875 C-50.61327632 24.69433487 -48.73813312 16.40367983 -41.703125 7.94921875 C-31.18420113 -3.00509104 -13.91892412 -6.65586137 0 0 Z M-39.828125 10.32421875 C-46.2929784 18.97692329 -47.7468142 26.55906581 -46.828125 37.32421875 C-45.12947399 45.0864088 -40.79221186 51.16416408 -34.828125 56.32421875 C-26.6831767 61.44844298 -18.77543344 63.74502168 -9.23046875 61.79296875 C-0.18325779 59.2821289 7.30156489 54.2812322 12.46875 46.328125 C16.25013082 38.86126795 17.48447431 29.66086642 15.109375 21.57421875 C11.16874115 11.90014015 5.0522198 4.80007028 -4.515625 0.44921875 C-17.71541616 -3.88155752 -30.70593545 0.28777858 -39.828125 10.32421875 Z " fill="#100D0D" transform="translate(131.828125,75.67578125)"/>
<path d="M0 0 C0.62777344 0.34933594 1.25554687 0.69867188 1.90234375 1.05859375 C9.38120173 5.78811225 13.56524863 13.69320122 16 22 C15.505 23.485 15.505 23.485 15 25 C14.46375 24.05125 13.9275 23.1025 13.375 22.125 C13.00632812 21.48949219 12.63765625 20.85398437 12.2578125 20.19921875 C11.37362005 18.65325494 10.51649865 17.09164687 9.6796875 15.51953125 C6.33685758 9.48234389 2.99775964 5.47480147 -3 2 C-3.58136719 1.66097656 -4.16273437 1.32195313 -4.76171875 0.97265625 C-12.21592586 -2.53615708 -21.72721478 -2.37391726 -29.42578125 0.1015625 C-35.58192204 2.96880615 -40.37279669 6.21088743 -44 12 C-44.40992188 12.62132813 -44.81984375 13.24265625 -45.2421875 13.8828125 C-49.29713375 21.23764604 -49.53070181 30.98693581 -47.47558594 39.06005859 C-46.47106694 42.22314324 -45.28281742 45.24305231 -43.99609375 48.3046875 C-43.66738281 49.19414063 -43.33867188 50.08359375 -43 51 C-43.33 51.66 -43.66 52.32 -44 53 C-50.9317348 45.57314129 -52.65186437 37.24776463 -52.6171875 27.40820312 C-52.2235554 18.18245082 -47.9922001 10.86276502 -42 4 C-29.57700549 -6.0061574 -14.0306988 -7.85399648 0 0 Z " fill="#120D0D" transform="translate(93,5)"/>
<path d="M0 0 C1.70840281 1.63412443 2.93453047 2.86906094 4 5 C4.08668222 15.95663292 1.54768908 25.23289369 -6.09765625 33.25 C-13.89161577 40.4198026 -23.42129185 43.43635487 -34 43.0625 C-42.20139872 42.09128173 -50.62689115 38.4206186 -56 32 C-56.75 28.25 -56.75 28.25 -57 25 C-56.360625 25.70125 -55.72125 26.4025 -55.0625 27.125 C-48.48003629 33.6701693 -41.07288981 37.90158101 -31.6875 38.3125 C-23.11859242 38.09315936 -15.32395804 35.26804479 -9.1875 29.2109375 C-1.04344849 20.42214857 0 11.67183829 0 0 Z " fill="#232121" transform="translate(147,99)"/>
<path d="M0 0 C8.10658718 5.1026234 15.49252325 11.98247135 17.82421875 21.57421875 C18.12109375 23.515625 18.12109375 23.515625 18.30859375 26.453125 C15.16507276 23.89173753 13.65726242 21.25449193 11.99609375 17.640625 C7.82431698 9.09602198 2.47054167 4.70293197 -6.4375 1.3359375 C-14.38812409 -0.82113458 -22.28556108 -0.69352353 -29.63671875 3.2109375 C-30.31476562 3.62085937 -30.9928125 4.03078125 -31.69140625 4.453125 C-32.39007813 4.84242187 -33.08875 5.23171875 -33.80859375 5.6328125 C-40.83220283 10.1120198 -44.25633428 17.13207162 -46.38671875 25.03125 C-47.53815743 32.62584556 -45.95723895 41.05437595 -41.69140625 47.453125 C-41.15224479 50.1133273 -40.95770527 52.74575163 -40.69140625 55.453125 C-45.46391468 51.36240349 -48.56284227 45.63852373 -49.69140625 39.453125 C-50.52320286 27.09889996 -49.74911644 18.00332524 -41.56640625 8.140625 C-31.228357 -2.74513547 -13.82440816 -6.62079581 0 0 Z " fill="#120D0D" transform="translate(49.69140625,75.546875)"/>
<path d="M0 0 C6.19513529 -0.81514938 10.92377152 1.720229 16 5 C21.47146017 9.82116367 23.62033542 14.63725657 24.4375 21.875 C24.30872866 27.46582253 21.1188509 31.61279859 17.51953125 35.66796875 C14.83458468 38.02161085 12.21637427 38.11830122 8.8125 38.0625 C7.554375 38.041875 6.29625 38.02125 5 38 C5.38671875 37.5875 5.7734375 37.175 6.171875 36.75 C11.76196266 30.55109091 15.81764809 24.73891514 15.38671875 16.10546875 C14.36483941 10.54190344 10.46300387 7.08159791 6 4 C4.02288349 2.95548562 2.02749004 1.94301862 0 1 C0 0.67 0 0.34 0 0 Z " fill="#0F0408" transform="translate(31,82)"/>
<path d="M0 0 C0.66 0 1.32 0 2 0 C2.25523438 1.08667969 2.25523438 1.08667969 2.515625 2.1953125 C4.19112275 8.87947906 5.80213301 14.17835266 11.125 18.875 C16.43655377 20.95343408 21.48438271 21.01045715 26.80078125 18.875 C28.54392248 17.98703225 30.26890151 17.06201813 31.96875 16.09375 C34 15 34 15 36 15 C33.61289153 20.40609859 29.48044685 23.75977657 24.25 26.375 C17.72871212 27.62909382 11.49357232 28.32278223 5.5625 24.875 C0.7175327 21.32070022 -1.96428407 17.53358526 -2.9375 11.5625 C-3.29672293 6.95507552 -2.14854208 4.03925911 0 0 Z " fill="#0F0408" transform="translate(61,29)"/>
<path d="M0 0 C0.33 0 0.66 0 1 0 C1.08636719 0.556875 1.17273438 1.11375 1.26171875 1.6875 C2.49576945 8.38986708 4.76119313 13.97059874 9.8125 18.6953125 C14.1559188 21.28585157 19.13406611 20.66191012 24 20 C27.56990026 18.67552903 30.7517318 16.9735494 34 15 C34.66 14.67 35.32 14.34 36 14 C34.57646476 17.33136597 32.8664687 19.27664757 30.125 21.625 C29.44695313 22.21539062 28.76890625 22.80578125 28.0703125 23.4140625 C21.91634196 28.12823616 15.53579376 27.70976662 8 27 C2.76003365 24.56070532 -0.09331547 20.86002679 -3.25 16.125 C-4.83943857 11.62159071 -4.40840908 7.95887348 -2.5625 3.625 C-1 1 -1 1 0 0 Z " fill="#0F0408" transform="translate(21,101)"/>
<path d="M0 0 C0.33 0 0.66 0 1 0 C1.34611328 1.32064453 1.34611328 1.32064453 1.69921875 2.66796875 C4.07523208 11.12958142 5.69616674 15.13077783 13 20 C20.56578355 21.06665145 26.38841507 19.58727578 33 16 C34.33194542 15.33056469 35.66487938 14.66308004 37 14 C31.81366623 20.3447932 27.06544027 25.48781369 19 28 C12.33735439 28.27895135 7.38261844 26.87548528 2 23 C-2.64174403 17.99180249 -3.27880926 14.06610697 -3.23046875 7.453125 C-2.9383708 4.34401462 -1.99258645 2.39110374 0 0 Z " fill="#0F0408" transform="translate(103,101)"/>
<path d="M0 0 C6.90563698 0.45036763 13.81080468 2.68730509 18.71484375 7.78125 C23.06453813 13.73213622 23.59156021 18.86779293 23 26 C21.27526566 31.27565797 17.87645021 35.32491874 13 38 C9.92538065 38.46925828 7.08023548 38.37717169 4 38 C4.7425 37.29875 5.485 36.5975 6.25 35.875 C12.20665135 29.64759177 14.55163121 24.38867111 14.47265625 15.859375 C13.65360269 10.90443941 10.78461942 8.10514142 7 5 C4.70725155 3.43756718 2.50174391 2.22534395 0 1 C0 0.67 0 0.34 0 0 Z " fill="#0F0408" transform="translate(114,82)"/>
<path d="M0 0 C3.37567469 1.91950129 5.13761791 3.53268865 7.1875 6.8125 C7.1875 7.8025 7.1875 8.7925 7.1875 9.8125 C6.094375 9.4825 5.00125 9.1525 3.875 8.8125 C-2.62904748 7.21825746 -9.09476194 6.5277511 -15.25 9.4375 C-22.02893064 15.72041132 -22.81022015 21.92386029 -23.8125 30.8125 C-27.14132909 27.48367091 -26.92329188 23.52799945 -27.125 19 C-27.04022655 13.8134061 -26.01370264 9.94222827 -22.8125 5.8125 C-15.57631454 -0.75154965 -9.5599979 -2.97770427 0 0 Z " fill="#0F0408" transform="translate(36.8125,88.1875)"/>
<path d="M0 0 C7.13233966 0.26416073 12.51559302 2.34342804 18 7 C22.19260222 12.61827457 24.00481934 18.07791119 23 25 C21.17736323 30.29340252 18.79369492 33.92711864 14 37 C10.52674819 38.1577506 7.63932552 38.06866652 4 38 C4.38671875 37.5875 4.7734375 37.175 5.171875 36.75 C10.87365262 30.42723669 15.00231389 24.35093848 14.6484375 15.53125 C13.22828475 9.98752117 8.81590928 5.84978141 4.1328125 2.7734375 C2.39015346 1.84205605 2.39015346 1.84205605 0 1 C0 0.67 0 0.34 0 0 Z " fill="#0D0408" transform="translate(73,10)"/>
<path d="M0 0 C5.01039585 2.32625522 7.27188152 5.38318411 10 10 C9.34 10.33 8.68 10.66 8 11 C6.65615234 10.54560547 6.65615234 10.54560547 5.28515625 10.08203125 C1.81781258 8.93999297 -0.92399436 8.70038727 -4.5625 8.6875 C-5.65691406 8.67074219 -6.75132813 8.65398438 -7.87890625 8.63671875 C-11.3754135 9.04369644 -13.1941795 9.91035047 -16 12 C-20.3493977 17.84061978 -21.11099575 23.87626859 -22 31 C-25.57488507 25.63767239 -25.60341842 21.37037446 -25 15 C-23.21918031 8.7027641 -19.23335864 4.72522327 -14 1 C-9.81388848 -1.09305576 -4.55867052 -0.42364608 0 0 Z " fill="#0F0408" transform="translate(76,15)"/>
<path d="M0 0 C2.4375 2.5 2.4375 2.5 4 5 C3.67 5.99 3.34 6.98 3 8 C1.88625 7.505 1.88625 7.505 0.75 7 C-5.79928512 5.25352397 -12.35216667 4.74576316 -18.5625 7.6875 C-23.53993384 12.40968082 -24.54761776 16.74343371 -25.1875 23.3125 C-25.3102832 24.42334961 -25.3102832 24.42334961 -25.43554688 25.55664062 C-25.63442588 27.36994923 -25.81869827 29.18484969 -26 31 C-29.03004831 26.45492753 -29.21131011 23.07186717 -29.3125 17.6875 C-29.34988281 16.39199219 -29.38726562 15.09648438 -29.42578125 13.76171875 C-28.77458639 8.00850174 -25.84417489 4.35042929 -21.5 0.6875 C-20.9328125 0.19636719 -20.365625 -0.29476562 -19.78125 -0.80078125 C-13.75551729 -4.85757937 -5.77898082 -3.80887372 0 0 Z " fill="#0C0408" transform="translate(122,90)"/>
</svg>
