<?xml version="1.0" encoding="UTF-8"?>
<svg version="1.1" xmlns="http://www.w3.org/2000/svg" width="151" height="151">
<path d="M0 0 C1.33817053 1.11924189 2.6721362 2.24354938 4 3.375 C4.99 4.096875 5.98 4.81875 7 5.5625 C20.31716817 16.92451606 28.68533154 35.64898725 30.22314453 52.87451172 C31.52037033 74.70775725 26.13847501 95.17314679 11.45703125 111.85546875 C-3.34696974 127.03604211 -21.47927525 136.09724883 -42.78955078 136.84375 C-63.79260396 137.08590374 -82.61791025 130.47920541 -98.16796875 116.14453125 C-113.36213384 101.28568566 -121.25396175 82.04573291 -121.5 60.875 C-121.29816671 42.07567108 -115.25894754 25.74854455 -103 11.375 C-102.36449219 10.54871094 -101.72898437 9.72242187 -101.07421875 8.87109375 C-76.75654799 -20.39254394 -29.16364027 -22.34743052 0 0 Z " fill="#9D6529" transform="translate(121,14.625)"/>
<path d="M0 0 C16.52156866 0 26.23560501 3.64578645 38.25 14.75 C46.28585389 23.159237 51.01306834 34.27810645 51.375 45.875 C50.9210387 61.27020929 44.94580577 73.38477226 34 84 C21.93680423 94.56663389 8.89523985 97.02473549 -6.84375 96.18652344 C-22.75080202 94.8105058 -37.24049421 86.5641297 -48 75 C-61.20781647 59.1133495 -65.61150093 42.40324062 -64 22 C-62.90375677 14.67582422 -60.59503136 8.44626312 -57 2 C-52.8440899 3.47220432 -49.51436056 5.52213749 -45.875 8 C-44.5562176 8.8909626 -43.23718506 9.78155501 -41.91796875 10.671875 C-41.16177246 11.18427734 -40.40557617 11.69667969 -39.62646484 12.22460938 C-34.75590233 15.51692492 -29.86921708 18.78510372 -24.98077393 22.05078125 C-23.22579014 23.22439418 -21.47293699 24.40113813 -19.72021484 25.578125 C-18.59872796 26.32826728 -17.47714944 27.07827256 -16.35546875 27.828125 C-15.37215576 28.4871582 -14.38884277 29.14619141 -13.37573242 29.82519531 C-8.98306721 32.65515566 -4.48069251 35.3115845 0 38 C0 25.46 0 12.92 0 0 Z " fill="#FEFDFC" transform="translate(75,44)"/>
<path d="M0 0 C0.33 0 0.66 0 1 0 C1 12.54 1 25.08 1 38 C-0.98 37.01 -2.96 36.02 -5 35 C-3.68 34.34 -2.36 33.68 -1 33 C-0.67 22.11 -0.34 11.22 0 0 Z " fill="#956232" transform="translate(73,44)"/>
<path d="M0 0 C4.32920863 4.32920863 4.125 10.70918435 4.125 16.5 C4.09323089 18.33353155 4.05498946 20.1670179 4 22 C3.67 22 3.34 22 3 22 C1.67611771 15.56971459 0.75205598 9.5705166 1 3 C0.34 3 -0.32 3 -1 3 C-0.67 2.01 -0.34 1.02 0 0 Z " fill="#E7D5BD" transform="translate(122,74)"/>
<path d="M0 0 C1.32 0.66 2.64 1.32 4 2 C2.71186658 2.83878455 1.41936744 3.67086783 0.125 4.5 C-0.59429687 4.9640625 -1.31359375 5.428125 -2.0546875 5.90625 C-4 7 -4 7 -6 7 C-5.67 6.01 -5.34 5.02 -5 4 C-3.68 4 -2.36 4 -1 4 C-0.67 2.68 -0.34 1.36 0 0 Z " fill="#F8F0DB" transform="translate(101,129)"/>
<path d="M0 0 C6 7.4 6 7.4 6 11 C5.34 11 4.68 11 4 11 C3.67 10.01 3.34 9.02 3 8 C2.01 7.34 1.02 6.68 0 6 C-0.1875 2.875 -0.1875 2.875 0 0 Z " fill="#F8EFD8" transform="translate(116,63)"/>
<path d="M0 0 C0.33 0 0.66 0 1 0 C1.2954439 5.02254631 0.98514628 7.89542386 -2 12 C-2.66 11.67 -3.32 11.34 -4 11 C-2.68 7.37 -1.36 3.74 0 0 Z " fill="#A0774E" transform="translate(124,102)"/>
<path d="M0 0 C4.875 1.75 4.875 1.75 6 4 C3.36 4.33 0.72 4.66 -2 5 C-1.34 3.35 -0.68 1.7 0 0 Z " fill="#FBEED5" transform="translate(18,46)"/>
<path d="M0 0 C1.32 0.33 2.64 0.66 4 1 C2.515 4.96 2.515 4.96 1 9 C0.67 9 0.34 9 0 9 C0 6.03 0 3.06 0 0 Z " fill="#966C40" transform="translate(13,48)"/>
</svg>
